<mxfile host="65bd71144e">
    <diagram id="t-l9pZwJp-8gyOa67NJk" name="通过构造函数创建对象">
        <mxGraphModel dx="1402" dy="562" grid="0" gridSize="10" guides="1" tooltips="1" connect="1" arrows="1" fold="1" page="0" pageScale="1" pageWidth="1169" pageHeight="1654" background="#ffffff" math="0" shadow="0">
            <root>
                <mxCell id="0"/>
                <mxCell id="1" parent="0"/>
                <mxCell id="2" value="函数对象：function Person () {}" style="shape=table;startSize=25;container=1;collapsible=0;childLayout=tableLayout;fontStyle=1;align=center;rounded=0;labelBorderColor=none;sketch=0;strokeColor=#000000;fontColor=#000000;fillColor=none;" vertex="1" parent="1">
                    <mxGeometry x="297" y="291" width="218" height="73" as="geometry"/>
                </mxCell>
                <mxCell id="22" value="" style="shape=tableRow;horizontal=0;startSize=0;swimlaneHead=0;swimlaneBody=0;top=0;left=0;bottom=0;right=0;collapsible=0;dropTarget=0;fillColor=none;points=[[0,0.5],[1,0.5]];portConstraint=eastwest;rounded=0;labelBorderColor=#000000;sketch=0;strokeColor=#000000;fontColor=#000000;" vertex="1" parent="2">
                    <mxGeometry y="25" width="218" height="24" as="geometry"/>
                </mxCell>
                <mxCell id="23" value="prototype" style="shape=partialRectangle;html=1;whiteSpace=wrap;connectable=0;fillColor=none;top=0;left=0;bottom=0;right=0;overflow=hidden;rounded=0;labelBorderColor=none;sketch=0;strokeColor=#000000;fontColor=#000000;" vertex="1" parent="22">
                    <mxGeometry width="110" height="24" as="geometry">
                        <mxRectangle width="110" height="24" as="alternateBounds"/>
                    </mxGeometry>
                </mxCell>
                <mxCell id="24" value="" style="shape=partialRectangle;html=1;whiteSpace=wrap;connectable=0;fillColor=none;top=0;left=0;bottom=0;right=0;overflow=hidden;rounded=0;labelBorderColor=none;sketch=0;strokeColor=#000000;fontColor=#000000;" vertex="1" parent="22">
                    <mxGeometry x="110" width="108" height="24" as="geometry">
                        <mxRectangle width="108" height="24" as="alternateBounds"/>
                    </mxGeometry>
                </mxCell>
                <mxCell id="9" value="" style="shape=tableRow;horizontal=0;startSize=0;swimlaneHead=0;swimlaneBody=0;top=0;left=0;bottom=0;right=0;collapsible=0;dropTarget=0;fillColor=none;points=[[0,0.5],[1,0.5]];portConstraint=eastwest;rounded=0;labelBorderColor=#000000;sketch=0;strokeColor=#000000;fontColor=#000000;" vertex="1" parent="2">
                    <mxGeometry y="49" width="218" height="24" as="geometry"/>
                </mxCell>
                <mxCell id="10" value="__proto__" style="shape=partialRectangle;html=1;whiteSpace=wrap;connectable=0;fillColor=none;top=0;left=0;bottom=0;right=0;overflow=hidden;rounded=0;labelBorderColor=none;sketch=0;strokeColor=#000000;fontColor=#000000;" vertex="1" parent="9">
                    <mxGeometry width="110" height="24" as="geometry">
                        <mxRectangle width="110" height="24" as="alternateBounds"/>
                    </mxGeometry>
                </mxCell>
                <mxCell id="11" value="" style="shape=partialRectangle;html=1;whiteSpace=wrap;connectable=0;fillColor=none;top=0;left=0;bottom=0;right=0;overflow=hidden;rounded=0;labelBorderColor=none;sketch=0;strokeColor=#000000;fontColor=#000000;" vertex="1" parent="9">
                    <mxGeometry x="110" width="108" height="24" as="geometry">
                        <mxRectangle width="108" height="24" as="alternateBounds"/>
                    </mxGeometry>
                </mxCell>
                <mxCell id="12" value="Person函数显式原型对象" style="shape=table;startSize=25;container=1;collapsible=0;childLayout=tableLayout;fontStyle=1;align=center;rounded=0;labelBorderColor=none;sketch=0;strokeColor=#000000;fontColor=#000000;fillColor=none;" vertex="1" parent="1">
                    <mxGeometry x="606" y="292" width="208" height="73" as="geometry"/>
                </mxCell>
                <mxCell id="13" value="" style="shape=tableRow;horizontal=0;startSize=0;swimlaneHead=0;swimlaneBody=0;top=0;left=0;bottom=0;right=0;collapsible=0;dropTarget=0;fillColor=none;points=[[0,0.5],[1,0.5]];portConstraint=eastwest;rounded=0;labelBorderColor=#000000;sketch=0;strokeColor=#000000;fontColor=#000000;" vertex="1" parent="12">
                    <mxGeometry y="25" width="208" height="24" as="geometry"/>
                </mxCell>
                <mxCell id="14" value="constructor" style="shape=partialRectangle;html=1;whiteSpace=wrap;connectable=0;fillColor=none;top=0;left=0;bottom=0;right=0;overflow=hidden;rounded=0;labelBorderColor=none;sketch=0;strokeColor=default;fontColor=#000000;" vertex="1" parent="13">
                    <mxGeometry width="105" height="24" as="geometry">
                        <mxRectangle width="105" height="24" as="alternateBounds"/>
                    </mxGeometry>
                </mxCell>
                <mxCell id="15" value="" style="shape=partialRectangle;html=1;whiteSpace=wrap;connectable=0;fillColor=none;top=0;left=0;bottom=0;right=0;overflow=hidden;rounded=0;labelBorderColor=none;sketch=0;strokeColor=#000000;fontColor=#000000;" vertex="1" parent="13">
                    <mxGeometry x="105" width="103" height="24" as="geometry">
                        <mxRectangle width="103" height="24" as="alternateBounds"/>
                    </mxGeometry>
                </mxCell>
                <mxCell id="19" value="" style="shape=tableRow;horizontal=0;startSize=0;swimlaneHead=0;swimlaneBody=0;top=0;left=0;bottom=0;right=0;collapsible=0;dropTarget=0;fillColor=none;points=[[0,0.5],[1,0.5]];portConstraint=eastwest;rounded=0;labelBorderColor=#000000;sketch=0;strokeColor=#000000;fontColor=#000000;" vertex="1" parent="12">
                    <mxGeometry y="49" width="208" height="24" as="geometry"/>
                </mxCell>
                <mxCell id="20" value="__proto__" style="shape=partialRectangle;html=1;whiteSpace=wrap;connectable=0;fillColor=none;top=0;left=0;bottom=0;right=0;overflow=hidden;rounded=0;labelBorderColor=none;sketch=0;strokeColor=default;fontColor=#000000;" vertex="1" parent="19">
                    <mxGeometry width="105" height="24" as="geometry">
                        <mxRectangle width="105" height="24" as="alternateBounds"/>
                    </mxGeometry>
                </mxCell>
                <mxCell id="21" value="" style="shape=partialRectangle;html=1;whiteSpace=wrap;connectable=0;fillColor=none;top=0;left=0;bottom=0;right=0;overflow=hidden;rounded=0;labelBorderColor=none;sketch=0;strokeColor=#000000;fontColor=#000000;" vertex="1" parent="19">
                    <mxGeometry x="105" width="103" height="24" as="geometry">
                        <mxRectangle width="103" height="24" as="alternateBounds"/>
                    </mxGeometry>
                </mxCell>
                <mxCell id="16" value="" style="endArrow=classic;html=1;strokeColor=#d79b00;fontColor=#000000;fillColor=#ffcd28;strokeWidth=2;gradientColor=#ffa500;exitX=1;exitY=0.5;exitDx=0;exitDy=0;" edge="1" parent="1">
                    <mxGeometry width="50" height="50" relative="1" as="geometry">
                        <mxPoint x="470" y="329.5" as="sourcePoint"/>
                        <mxPoint x="604" y="300" as="targetPoint"/>
                    </mxGeometry>
                </mxCell>
                <mxCell id="17" value="" style="edgeStyle=elbowEdgeStyle;elbow=vertical;endArrow=classic;html=1;curved=0;rounded=0;endSize=8;startSize=8;fillColor=#ffcd28;gradientColor=#ffa500;strokeColor=#d79b00;strokeWidth=2;entryX=0.798;entryY=0.012;entryDx=0;entryDy=0;entryPerimeter=0;" edge="1" parent="1">
                    <mxGeometry width="50" height="50" relative="1" as="geometry">
                        <mxPoint x="792" y="329" as="sourcePoint"/>
                        <mxPoint x="446.004" y="300.356" as="targetPoint"/>
                        <Array as="points">
                            <mxPoint x="635.03" y="264"/>
                        </Array>
                    </mxGeometry>
                </mxCell>
                <mxCell id="25" value="p1实例对象" style="shape=table;startSize=25;container=1;collapsible=0;childLayout=tableLayout;fontStyle=1;align=center;rounded=0;labelBorderColor=none;sketch=0;strokeColor=#000000;fontColor=#000000;fillColor=none;" vertex="1" parent="1">
                    <mxGeometry x="-11" y="411" width="218" height="49" as="geometry"/>
                </mxCell>
                <mxCell id="29" value="" style="shape=tableRow;horizontal=0;startSize=0;swimlaneHead=0;swimlaneBody=0;top=0;left=0;bottom=0;right=0;collapsible=0;dropTarget=0;fillColor=none;points=[[0,0.5],[1,0.5]];portConstraint=eastwest;rounded=0;labelBorderColor=#000000;sketch=0;strokeColor=#000000;fontColor=#000000;" vertex="1" parent="25">
                    <mxGeometry y="25" width="218" height="24" as="geometry"/>
                </mxCell>
                <mxCell id="30" value="__proto__" style="shape=partialRectangle;html=1;whiteSpace=wrap;connectable=0;fillColor=none;top=0;left=0;bottom=0;right=0;overflow=hidden;rounded=0;labelBorderColor=none;sketch=0;strokeColor=#000000;fontColor=#000000;" vertex="1" parent="29">
                    <mxGeometry width="110" height="24" as="geometry">
                        <mxRectangle width="110" height="24" as="alternateBounds"/>
                    </mxGeometry>
                </mxCell>
                <mxCell id="31" value="" style="shape=partialRectangle;html=1;whiteSpace=wrap;connectable=0;fillColor=none;top=0;left=0;bottom=0;right=0;overflow=hidden;rounded=0;labelBorderColor=none;sketch=0;strokeColor=#000000;fontColor=#000000;" vertex="1" parent="29">
                    <mxGeometry x="110" width="108" height="24" as="geometry">
                        <mxRectangle width="108" height="24" as="alternateBounds"/>
                    </mxGeometry>
                </mxCell>
                <mxCell id="36" value="" style="endArrow=classic;html=1;strokeColor=#d79b00;fontColor=#000000;fillColor=#ffcd28;strokeWidth=2;gradientColor=#ffa500;exitX=1;exitY=0.5;exitDx=0;exitDy=0;" edge="1" parent="1">
                    <mxGeometry width="50" height="50" relative="1" as="geometry">
                        <mxPoint x="170" y="451.25" as="sourcePoint"/>
                        <mxPoint x="604" y="311" as="targetPoint"/>
                    </mxGeometry>
                </mxCell>
            </root>
        </mxGraphModel>
    </diagram>
    <diagram name="通过构造函数创建对象 的副本" id="noA3AS96i3mRxvkwySRo">
        <mxGraphModel dx="1402" dy="562" grid="0" gridSize="10" guides="1" tooltips="1" connect="1" arrows="1" fold="1" page="0" pageScale="1" pageWidth="1169" pageHeight="1654" background="#ffffff" math="0" shadow="0">
            <root>
                <mxCell id="T7LQH-OzRgyuyxu5w2Zb-0"/>
                <mxCell id="T7LQH-OzRgyuyxu5w2Zb-1" parent="T7LQH-OzRgyuyxu5w2Zb-0"/>
                <mxCell id="T7LQH-OzRgyuyxu5w2Zb-2" value="函数对象：function Person () {}" style="shape=table;startSize=25;container=1;collapsible=0;childLayout=tableLayout;fontStyle=1;align=center;rounded=0;labelBorderColor=none;sketch=0;strokeColor=#000000;fontColor=#000000;fillColor=none;" vertex="1" parent="T7LQH-OzRgyuyxu5w2Zb-1">
                    <mxGeometry x="297" y="291" width="218" height="73" as="geometry"/>
                </mxCell>
                <mxCell id="T7LQH-OzRgyuyxu5w2Zb-3" value="" style="shape=tableRow;horizontal=0;startSize=0;swimlaneHead=0;swimlaneBody=0;top=0;left=0;bottom=0;right=0;collapsible=0;dropTarget=0;fillColor=none;points=[[0,0.5],[1,0.5]];portConstraint=eastwest;rounded=0;labelBorderColor=#000000;sketch=0;strokeColor=#000000;fontColor=#000000;" vertex="1" parent="T7LQH-OzRgyuyxu5w2Zb-2">
                    <mxGeometry y="25" width="218" height="24" as="geometry"/>
                </mxCell>
                <mxCell id="T7LQH-OzRgyuyxu5w2Zb-4" value="prototype" style="shape=partialRectangle;html=1;whiteSpace=wrap;connectable=0;fillColor=none;top=0;left=0;bottom=0;right=0;overflow=hidden;rounded=0;labelBorderColor=none;sketch=0;strokeColor=#000000;fontColor=#000000;" vertex="1" parent="T7LQH-OzRgyuyxu5w2Zb-3">
                    <mxGeometry width="110" height="24" as="geometry">
                        <mxRectangle width="110" height="24" as="alternateBounds"/>
                    </mxGeometry>
                </mxCell>
                <mxCell id="T7LQH-OzRgyuyxu5w2Zb-5" value="" style="shape=partialRectangle;html=1;whiteSpace=wrap;connectable=0;fillColor=none;top=0;left=0;bottom=0;right=0;overflow=hidden;rounded=0;labelBorderColor=none;sketch=0;strokeColor=#000000;fontColor=#000000;" vertex="1" parent="T7LQH-OzRgyuyxu5w2Zb-3">
                    <mxGeometry x="110" width="108" height="24" as="geometry">
                        <mxRectangle width="108" height="24" as="alternateBounds"/>
                    </mxGeometry>
                </mxCell>
                <mxCell id="T7LQH-OzRgyuyxu5w2Zb-6" value="" style="shape=tableRow;horizontal=0;startSize=0;swimlaneHead=0;swimlaneBody=0;top=0;left=0;bottom=0;right=0;collapsible=0;dropTarget=0;fillColor=none;points=[[0,0.5],[1,0.5]];portConstraint=eastwest;rounded=0;labelBorderColor=#000000;sketch=0;strokeColor=#000000;fontColor=#000000;" vertex="1" parent="T7LQH-OzRgyuyxu5w2Zb-2">
                    <mxGeometry y="49" width="218" height="24" as="geometry"/>
                </mxCell>
                <mxCell id="T7LQH-OzRgyuyxu5w2Zb-7" value="__proto__" style="shape=partialRectangle;html=1;whiteSpace=wrap;connectable=0;fillColor=none;top=0;left=0;bottom=0;right=0;overflow=hidden;rounded=0;labelBorderColor=none;sketch=0;strokeColor=#000000;fontColor=#000000;" vertex="1" parent="T7LQH-OzRgyuyxu5w2Zb-6">
                    <mxGeometry width="110" height="24" as="geometry">
                        <mxRectangle width="110" height="24" as="alternateBounds"/>
                    </mxGeometry>
                </mxCell>
                <mxCell id="T7LQH-OzRgyuyxu5w2Zb-8" value="" style="shape=partialRectangle;html=1;whiteSpace=wrap;connectable=0;fillColor=none;top=0;left=0;bottom=0;right=0;overflow=hidden;rounded=0;labelBorderColor=none;sketch=0;strokeColor=#000000;fontColor=#000000;" vertex="1" parent="T7LQH-OzRgyuyxu5w2Zb-6">
                    <mxGeometry x="110" width="108" height="24" as="geometry">
                        <mxRectangle width="108" height="24" as="alternateBounds"/>
                    </mxGeometry>
                </mxCell>
                <mxCell id="T7LQH-OzRgyuyxu5w2Zb-9" value="Person函数显式原型对象" style="shape=table;startSize=25;container=1;collapsible=0;childLayout=tableLayout;fontStyle=1;align=center;rounded=0;labelBorderColor=none;sketch=0;strokeColor=#000000;fontColor=#000000;fillColor=none;" vertex="1" parent="T7LQH-OzRgyuyxu5w2Zb-1">
                    <mxGeometry x="606" y="292" width="208" height="73" as="geometry"/>
                </mxCell>
                <mxCell id="T7LQH-OzRgyuyxu5w2Zb-10" value="" style="shape=tableRow;horizontal=0;startSize=0;swimlaneHead=0;swimlaneBody=0;top=0;left=0;bottom=0;right=0;collapsible=0;dropTarget=0;fillColor=none;points=[[0,0.5],[1,0.5]];portConstraint=eastwest;rounded=0;labelBorderColor=#000000;sketch=0;strokeColor=#000000;fontColor=#000000;" vertex="1" parent="T7LQH-OzRgyuyxu5w2Zb-9">
                    <mxGeometry y="25" width="208" height="24" as="geometry"/>
                </mxCell>
                <mxCell id="T7LQH-OzRgyuyxu5w2Zb-11" value="constructor" style="shape=partialRectangle;html=1;whiteSpace=wrap;connectable=0;fillColor=none;top=0;left=0;bottom=0;right=0;overflow=hidden;rounded=0;labelBorderColor=none;sketch=0;strokeColor=default;fontColor=#000000;" vertex="1" parent="T7LQH-OzRgyuyxu5w2Zb-10">
                    <mxGeometry width="105" height="24" as="geometry">
                        <mxRectangle width="105" height="24" as="alternateBounds"/>
                    </mxGeometry>
                </mxCell>
                <mxCell id="T7LQH-OzRgyuyxu5w2Zb-12" value="" style="shape=partialRectangle;html=1;whiteSpace=wrap;connectable=0;fillColor=none;top=0;left=0;bottom=0;right=0;overflow=hidden;rounded=0;labelBorderColor=none;sketch=0;strokeColor=#000000;fontColor=#000000;" vertex="1" parent="T7LQH-OzRgyuyxu5w2Zb-10">
                    <mxGeometry x="105" width="103" height="24" as="geometry">
                        <mxRectangle width="103" height="24" as="alternateBounds"/>
                    </mxGeometry>
                </mxCell>
                <mxCell id="T7LQH-OzRgyuyxu5w2Zb-13" value="" style="shape=tableRow;horizontal=0;startSize=0;swimlaneHead=0;swimlaneBody=0;top=0;left=0;bottom=0;right=0;collapsible=0;dropTarget=0;fillColor=none;points=[[0,0.5],[1,0.5]];portConstraint=eastwest;rounded=0;labelBorderColor=#000000;sketch=0;strokeColor=#000000;fontColor=#000000;" vertex="1" parent="T7LQH-OzRgyuyxu5w2Zb-9">
                    <mxGeometry y="49" width="208" height="24" as="geometry"/>
                </mxCell>
                <mxCell id="T7LQH-OzRgyuyxu5w2Zb-14" value="__proto__" style="shape=partialRectangle;html=1;whiteSpace=wrap;connectable=0;fillColor=none;top=0;left=0;bottom=0;right=0;overflow=hidden;rounded=0;labelBorderColor=none;sketch=0;strokeColor=default;fontColor=#000000;" vertex="1" parent="T7LQH-OzRgyuyxu5w2Zb-13">
                    <mxGeometry width="105" height="24" as="geometry">
                        <mxRectangle width="105" height="24" as="alternateBounds"/>
                    </mxGeometry>
                </mxCell>
                <mxCell id="T7LQH-OzRgyuyxu5w2Zb-15" value="" style="shape=partialRectangle;html=1;whiteSpace=wrap;connectable=0;fillColor=none;top=0;left=0;bottom=0;right=0;overflow=hidden;rounded=0;labelBorderColor=none;sketch=0;strokeColor=#000000;fontColor=#000000;" vertex="1" parent="T7LQH-OzRgyuyxu5w2Zb-13">
                    <mxGeometry x="105" width="103" height="24" as="geometry">
                        <mxRectangle width="103" height="24" as="alternateBounds"/>
                    </mxGeometry>
                </mxCell>
                <mxCell id="T7LQH-OzRgyuyxu5w2Zb-16" value="" style="endArrow=classic;html=1;strokeColor=#d79b00;fontColor=#000000;fillColor=#ffcd28;strokeWidth=2;gradientColor=#ffa500;exitX=1;exitY=0.5;exitDx=0;exitDy=0;" edge="1" parent="T7LQH-OzRgyuyxu5w2Zb-1">
                    <mxGeometry width="50" height="50" relative="1" as="geometry">
                        <mxPoint x="470" y="329.5" as="sourcePoint"/>
                        <mxPoint x="604" y="300" as="targetPoint"/>
                    </mxGeometry>
                </mxCell>
                <mxCell id="T7LQH-OzRgyuyxu5w2Zb-17" value="" style="edgeStyle=elbowEdgeStyle;elbow=vertical;endArrow=classic;html=1;curved=0;rounded=0;endSize=8;startSize=8;fillColor=#ffcd28;gradientColor=#ffa500;strokeColor=#d79b00;strokeWidth=2;entryX=0.798;entryY=0.012;entryDx=0;entryDy=0;entryPerimeter=0;" edge="1" parent="T7LQH-OzRgyuyxu5w2Zb-1">
                    <mxGeometry width="50" height="50" relative="1" as="geometry">
                        <mxPoint x="792" y="329" as="sourcePoint"/>
                        <mxPoint x="446.004" y="300.356" as="targetPoint"/>
                        <Array as="points">
                            <mxPoint x="635.03" y="264"/>
                        </Array>
                    </mxGeometry>
                </mxCell>
                <mxCell id="T7LQH-OzRgyuyxu5w2Zb-18" value="p1实例对象" style="shape=table;startSize=25;container=1;collapsible=0;childLayout=tableLayout;fontStyle=1;align=center;rounded=0;labelBorderColor=none;sketch=0;strokeColor=#000000;fontColor=#000000;fillColor=none;" vertex="1" parent="T7LQH-OzRgyuyxu5w2Zb-1">
                    <mxGeometry x="-11" y="411" width="218" height="49" as="geometry"/>
                </mxCell>
                <mxCell id="T7LQH-OzRgyuyxu5w2Zb-19" value="" style="shape=tableRow;horizontal=0;startSize=0;swimlaneHead=0;swimlaneBody=0;top=0;left=0;bottom=0;right=0;collapsible=0;dropTarget=0;fillColor=none;points=[[0,0.5],[1,0.5]];portConstraint=eastwest;rounded=0;labelBorderColor=#000000;sketch=0;strokeColor=#000000;fontColor=#000000;" vertex="1" parent="T7LQH-OzRgyuyxu5w2Zb-18">
                    <mxGeometry y="25" width="218" height="24" as="geometry"/>
                </mxCell>
                <mxCell id="T7LQH-OzRgyuyxu5w2Zb-20" value="__proto__" style="shape=partialRectangle;html=1;whiteSpace=wrap;connectable=0;fillColor=none;top=0;left=0;bottom=0;right=0;overflow=hidden;rounded=0;labelBorderColor=none;sketch=0;strokeColor=#000000;fontColor=#000000;" vertex="1" parent="T7LQH-OzRgyuyxu5w2Zb-19">
                    <mxGeometry width="110" height="24" as="geometry">
                        <mxRectangle width="110" height="24" as="alternateBounds"/>
                    </mxGeometry>
                </mxCell>
                <mxCell id="T7LQH-OzRgyuyxu5w2Zb-21" value="" style="shape=partialRectangle;html=1;whiteSpace=wrap;connectable=0;fillColor=none;top=0;left=0;bottom=0;right=0;overflow=hidden;rounded=0;labelBorderColor=none;sketch=0;strokeColor=#000000;fontColor=#000000;" vertex="1" parent="T7LQH-OzRgyuyxu5w2Zb-19">
                    <mxGeometry x="110" width="108" height="24" as="geometry">
                        <mxRectangle width="108" height="24" as="alternateBounds"/>
                    </mxGeometry>
                </mxCell>
                <mxCell id="T7LQH-OzRgyuyxu5w2Zb-22" value="" style="endArrow=classic;html=1;strokeColor=#d79b00;fontColor=#000000;fillColor=#ffcd28;strokeWidth=2;gradientColor=#ffa500;exitX=1;exitY=0.5;exitDx=0;exitDy=0;" edge="1" parent="T7LQH-OzRgyuyxu5w2Zb-1">
                    <mxGeometry width="50" height="50" relative="1" as="geometry">
                        <mxPoint x="170" y="451.25" as="sourcePoint"/>
                        <mxPoint x="604" y="311" as="targetPoint"/>
                    </mxGeometry>
                </mxCell>
                <mxCell id="uH0SILBDEuYTX8zdoeLO-0" value="函数对象：function Object () {}" style="shape=table;startSize=25;container=1;collapsible=0;childLayout=tableLayout;fontStyle=1;align=center;rounded=0;labelBorderColor=none;sketch=0;strokeColor=#000000;fontColor=#000000;fillColor=none;" vertex="1" parent="T7LQH-OzRgyuyxu5w2Zb-1">
                    <mxGeometry x="297" y="156" width="218" height="73" as="geometry"/>
                </mxCell>
                <mxCell id="uH0SILBDEuYTX8zdoeLO-1" value="" style="shape=tableRow;horizontal=0;startSize=0;swimlaneHead=0;swimlaneBody=0;top=0;left=0;bottom=0;right=0;collapsible=0;dropTarget=0;fillColor=none;points=[[0,0.5],[1,0.5]];portConstraint=eastwest;rounded=0;labelBorderColor=#000000;sketch=0;strokeColor=#000000;fontColor=#000000;" vertex="1" parent="uH0SILBDEuYTX8zdoeLO-0">
                    <mxGeometry y="25" width="218" height="24" as="geometry"/>
                </mxCell>
                <mxCell id="uH0SILBDEuYTX8zdoeLO-2" value="prototype" style="shape=partialRectangle;html=1;whiteSpace=wrap;connectable=0;fillColor=none;top=0;left=0;bottom=0;right=0;overflow=hidden;rounded=0;labelBorderColor=none;sketch=0;strokeColor=#000000;fontColor=#000000;" vertex="1" parent="uH0SILBDEuYTX8zdoeLO-1">
                    <mxGeometry width="110" height="24" as="geometry">
                        <mxRectangle width="110" height="24" as="alternateBounds"/>
                    </mxGeometry>
                </mxCell>
                <mxCell id="uH0SILBDEuYTX8zdoeLO-3" value="" style="shape=partialRectangle;html=1;whiteSpace=wrap;connectable=0;fillColor=none;top=0;left=0;bottom=0;right=0;overflow=hidden;rounded=0;labelBorderColor=none;sketch=0;strokeColor=#000000;fontColor=#000000;" vertex="1" parent="uH0SILBDEuYTX8zdoeLO-1">
                    <mxGeometry x="110" width="108" height="24" as="geometry">
                        <mxRectangle width="108" height="24" as="alternateBounds"/>
                    </mxGeometry>
                </mxCell>
                <mxCell id="uH0SILBDEuYTX8zdoeLO-4" value="" style="shape=tableRow;horizontal=0;startSize=0;swimlaneHead=0;swimlaneBody=0;top=0;left=0;bottom=0;right=0;collapsible=0;dropTarget=0;fillColor=none;points=[[0,0.5],[1,0.5]];portConstraint=eastwest;rounded=0;labelBorderColor=#000000;sketch=0;strokeColor=#000000;fontColor=#000000;" vertex="1" parent="uH0SILBDEuYTX8zdoeLO-0">
                    <mxGeometry y="49" width="218" height="24" as="geometry"/>
                </mxCell>
                <mxCell id="uH0SILBDEuYTX8zdoeLO-5" value="__proto__" style="shape=partialRectangle;html=1;whiteSpace=wrap;connectable=0;fillColor=none;top=0;left=0;bottom=0;right=0;overflow=hidden;rounded=0;labelBorderColor=none;sketch=0;strokeColor=#000000;fontColor=#000000;" vertex="1" parent="uH0SILBDEuYTX8zdoeLO-4">
                    <mxGeometry width="110" height="24" as="geometry">
                        <mxRectangle width="110" height="24" as="alternateBounds"/>
                    </mxGeometry>
                </mxCell>
                <mxCell id="uH0SILBDEuYTX8zdoeLO-6" value="" style="shape=partialRectangle;html=1;whiteSpace=wrap;connectable=0;fillColor=none;top=0;left=0;bottom=0;right=0;overflow=hidden;rounded=0;labelBorderColor=none;sketch=0;strokeColor=#000000;fontColor=#000000;" vertex="1" parent="uH0SILBDEuYTX8zdoeLO-4">
                    <mxGeometry x="110" width="108" height="24" as="geometry">
                        <mxRectangle width="108" height="24" as="alternateBounds"/>
                    </mxGeometry>
                </mxCell>
                <mxCell id="uH0SILBDEuYTX8zdoeLO-7" value="Object函数显式原型对象" style="shape=table;startSize=25;container=1;collapsible=0;childLayout=tableLayout;fontStyle=1;align=center;rounded=0;labelBorderColor=none;sketch=0;strokeColor=#000000;fontColor=#000000;fillColor=none;" vertex="1" parent="T7LQH-OzRgyuyxu5w2Zb-1">
                    <mxGeometry x="604" y="160" width="208" height="73" as="geometry"/>
                </mxCell>
                <mxCell id="uH0SILBDEuYTX8zdoeLO-8" value="" style="shape=tableRow;horizontal=0;startSize=0;swimlaneHead=0;swimlaneBody=0;top=0;left=0;bottom=0;right=0;collapsible=0;dropTarget=0;fillColor=none;points=[[0,0.5],[1,0.5]];portConstraint=eastwest;rounded=0;labelBorderColor=#000000;sketch=0;strokeColor=#000000;fontColor=#000000;" vertex="1" parent="uH0SILBDEuYTX8zdoeLO-7">
                    <mxGeometry y="25" width="208" height="24" as="geometry"/>
                </mxCell>
                <mxCell id="uH0SILBDEuYTX8zdoeLO-9" value="constructor" style="shape=partialRectangle;html=1;whiteSpace=wrap;connectable=0;fillColor=none;top=0;left=0;bottom=0;right=0;overflow=hidden;rounded=0;labelBorderColor=none;sketch=0;strokeColor=default;fontColor=#000000;" vertex="1" parent="uH0SILBDEuYTX8zdoeLO-8">
                    <mxGeometry width="105" height="24" as="geometry">
                        <mxRectangle width="105" height="24" as="alternateBounds"/>
                    </mxGeometry>
                </mxCell>
                <mxCell id="uH0SILBDEuYTX8zdoeLO-10" value="" style="shape=partialRectangle;html=1;whiteSpace=wrap;connectable=0;fillColor=none;top=0;left=0;bottom=0;right=0;overflow=hidden;rounded=0;labelBorderColor=none;sketch=0;strokeColor=#000000;fontColor=#000000;" vertex="1" parent="uH0SILBDEuYTX8zdoeLO-8">
                    <mxGeometry x="105" width="103" height="24" as="geometry">
                        <mxRectangle width="103" height="24" as="alternateBounds"/>
                    </mxGeometry>
                </mxCell>
                <mxCell id="uH0SILBDEuYTX8zdoeLO-11" value="" style="shape=tableRow;horizontal=0;startSize=0;swimlaneHead=0;swimlaneBody=0;top=0;left=0;bottom=0;right=0;collapsible=0;dropTarget=0;fillColor=none;points=[[0,0.5],[1,0.5]];portConstraint=eastwest;rounded=0;labelBorderColor=#000000;sketch=0;strokeColor=#000000;fontColor=#000000;" vertex="1" parent="uH0SILBDEuYTX8zdoeLO-7">
                    <mxGeometry y="49" width="208" height="24" as="geometry"/>
                </mxCell>
                <mxCell id="uH0SILBDEuYTX8zdoeLO-12" value="__proto__" style="shape=partialRectangle;html=1;whiteSpace=wrap;connectable=0;fillColor=none;top=0;left=0;bottom=0;right=0;overflow=hidden;rounded=0;labelBorderColor=none;sketch=0;strokeColor=default;fontColor=#000000;" vertex="1" parent="uH0SILBDEuYTX8zdoeLO-11">
                    <mxGeometry width="105" height="24" as="geometry">
                        <mxRectangle width="105" height="24" as="alternateBounds"/>
                    </mxGeometry>
                </mxCell>
                <mxCell id="uH0SILBDEuYTX8zdoeLO-13" value="null" style="shape=partialRectangle;html=1;whiteSpace=wrap;connectable=0;fillColor=none;top=0;left=0;bottom=0;right=0;overflow=hidden;rounded=0;labelBorderColor=none;sketch=0;strokeColor=#000000;fontColor=#000000;" vertex="1" parent="uH0SILBDEuYTX8zdoeLO-11">
                    <mxGeometry x="105" width="103" height="24" as="geometry">
                        <mxRectangle width="103" height="24" as="alternateBounds"/>
                    </mxGeometry>
                </mxCell>
                <mxCell id="uH0SILBDEuYTX8zdoeLO-15" value="" style="endArrow=classic;html=1;strokeColor=#2D7600;fontColor=#000000;fillColor=#60a917;strokeWidth=2;exitX=1;exitY=0.5;exitDx=0;exitDy=0;entryX=0;entryY=0.25;entryDx=0;entryDy=0;" edge="1" parent="T7LQH-OzRgyuyxu5w2Zb-1" target="uH0SILBDEuYTX8zdoeLO-7">
                    <mxGeometry width="50" height="50" relative="1" as="geometry">
                        <mxPoint x="467.29" y="196.53" as="sourcePoint"/>
                        <mxPoint x="241.99599999999992" y="7.001999999999981" as="targetPoint"/>
                    </mxGeometry>
                </mxCell>
                <mxCell id="uH0SILBDEuYTX8zdoeLO-16" value="" style="edgeStyle=elbowEdgeStyle;elbow=vertical;endArrow=classic;html=1;curved=0;rounded=0;endSize=8;startSize=8;fillColor=#60a917;strokeColor=#2D7600;strokeWidth=2;" edge="1" parent="T7LQH-OzRgyuyxu5w2Zb-1">
                    <mxGeometry width="50" height="50" relative="1" as="geometry">
                        <mxPoint x="783" y="198" as="sourcePoint"/>
                        <mxPoint x="437" y="155" as="targetPoint"/>
                        <Array as="points">
                            <mxPoint x="611" y="122"/>
                        </Array>
                    </mxGeometry>
                </mxCell>
                <mxCell id="uH0SILBDEuYTX8zdoeLO-17" value="" style="edgeStyle=elbowEdgeStyle;elbow=horizontal;endArrow=classic;html=1;curved=0;rounded=0;endSize=8;startSize=8;fillColor=#60a917;strokeColor=#2D7600;strokeWidth=2;entryX=1.01;entryY=0.164;entryDx=0;entryDy=0;entryPerimeter=0;" edge="1" parent="T7LQH-OzRgyuyxu5w2Zb-1" source="T7LQH-OzRgyuyxu5w2Zb-13" target="uH0SILBDEuYTX8zdoeLO-7">
                    <mxGeometry width="50" height="50" relative="1" as="geometry">
                        <mxPoint x="376" y="284" as="sourcePoint"/>
                        <mxPoint x="820" y="170" as="targetPoint"/>
                        <Array as="points">
                            <mxPoint x="845" y="256"/>
                        </Array>
                    </mxGeometry>
                </mxCell>
            </root>
        </mxGraphModel>
    </diagram>
    <diagram name="Person构造函数的隐式原型" id="3iKolPNMUMGru0QDmZSD">
        <mxGraphModel dx="1579" dy="1061" grid="0" gridSize="10" guides="1" tooltips="1" connect="1" arrows="1" fold="1" page="0" pageScale="1" pageWidth="1169" pageHeight="1654" background="#ffffff" math="0" shadow="0">
            <root>
                <mxCell id="2ADz5iWZtIwnanjkUV10-0"/>
                <mxCell id="2ADz5iWZtIwnanjkUV10-1" parent="2ADz5iWZtIwnanjkUV10-0"/>
                <mxCell id="2ADz5iWZtIwnanjkUV10-2" value="函数对象：function Person () {}" style="shape=table;startSize=25;container=1;collapsible=0;childLayout=tableLayout;fontStyle=1;align=center;rounded=0;labelBorderColor=none;sketch=0;strokeColor=#000000;fontColor=#000000;fillColor=none;" vertex="1" parent="2ADz5iWZtIwnanjkUV10-1">
                    <mxGeometry x="297" y="291" width="218" height="73" as="geometry"/>
                </mxCell>
                <mxCell id="2ADz5iWZtIwnanjkUV10-3" value="" style="shape=tableRow;horizontal=0;startSize=0;swimlaneHead=0;swimlaneBody=0;top=0;left=0;bottom=0;right=0;collapsible=0;dropTarget=0;fillColor=none;points=[[0,0.5],[1,0.5]];portConstraint=eastwest;rounded=0;labelBorderColor=#000000;sketch=0;strokeColor=#000000;fontColor=#000000;" vertex="1" parent="2ADz5iWZtIwnanjkUV10-2">
                    <mxGeometry y="25" width="218" height="24" as="geometry"/>
                </mxCell>
                <mxCell id="2ADz5iWZtIwnanjkUV10-4" value="prototype" style="shape=partialRectangle;html=1;whiteSpace=wrap;connectable=0;fillColor=none;top=0;left=0;bottom=0;right=0;overflow=hidden;rounded=0;labelBorderColor=none;sketch=0;strokeColor=#000000;fontColor=#000000;" vertex="1" parent="2ADz5iWZtIwnanjkUV10-3">
                    <mxGeometry width="110" height="24" as="geometry">
                        <mxRectangle width="110" height="24" as="alternateBounds"/>
                    </mxGeometry>
                </mxCell>
                <mxCell id="2ADz5iWZtIwnanjkUV10-5" value="" style="shape=partialRectangle;html=1;whiteSpace=wrap;connectable=0;fillColor=none;top=0;left=0;bottom=0;right=0;overflow=hidden;rounded=0;labelBorderColor=none;sketch=0;strokeColor=#000000;fontColor=#000000;" vertex="1" parent="2ADz5iWZtIwnanjkUV10-3">
                    <mxGeometry x="110" width="108" height="24" as="geometry">
                        <mxRectangle width="108" height="24" as="alternateBounds"/>
                    </mxGeometry>
                </mxCell>
                <mxCell id="2ADz5iWZtIwnanjkUV10-6" value="" style="shape=tableRow;horizontal=0;startSize=0;swimlaneHead=0;swimlaneBody=0;top=0;left=0;bottom=0;right=0;collapsible=0;dropTarget=0;fillColor=none;points=[[0,0.5],[1,0.5]];portConstraint=eastwest;rounded=0;labelBorderColor=#000000;sketch=0;strokeColor=#000000;fontColor=#000000;" vertex="1" parent="2ADz5iWZtIwnanjkUV10-2">
                    <mxGeometry y="49" width="218" height="24" as="geometry"/>
                </mxCell>
                <mxCell id="2ADz5iWZtIwnanjkUV10-7" value="__proto__" style="shape=partialRectangle;html=1;whiteSpace=wrap;connectable=0;fillColor=none;top=0;left=0;bottom=0;right=0;overflow=hidden;rounded=0;labelBorderColor=none;sketch=0;strokeColor=#000000;fontColor=#000000;" vertex="1" parent="2ADz5iWZtIwnanjkUV10-6">
                    <mxGeometry width="110" height="24" as="geometry">
                        <mxRectangle width="110" height="24" as="alternateBounds"/>
                    </mxGeometry>
                </mxCell>
                <mxCell id="2ADz5iWZtIwnanjkUV10-8" value="" style="shape=partialRectangle;html=1;whiteSpace=wrap;connectable=0;fillColor=none;top=0;left=0;bottom=0;right=0;overflow=hidden;rounded=0;labelBorderColor=none;sketch=0;strokeColor=#000000;fontColor=#000000;" vertex="1" parent="2ADz5iWZtIwnanjkUV10-6">
                    <mxGeometry x="110" width="108" height="24" as="geometry">
                        <mxRectangle width="108" height="24" as="alternateBounds"/>
                    </mxGeometry>
                </mxCell>
                <mxCell id="2ADz5iWZtIwnanjkUV10-9" value="Person函数显式原型对象" style="shape=table;startSize=25;container=1;collapsible=0;childLayout=tableLayout;fontStyle=1;align=center;rounded=0;labelBorderColor=none;sketch=0;strokeColor=#000000;fontColor=#000000;fillColor=none;" vertex="1" parent="2ADz5iWZtIwnanjkUV10-1">
                    <mxGeometry x="606" y="292" width="208" height="73" as="geometry"/>
                </mxCell>
                <mxCell id="2ADz5iWZtIwnanjkUV10-10" value="" style="shape=tableRow;horizontal=0;startSize=0;swimlaneHead=0;swimlaneBody=0;top=0;left=0;bottom=0;right=0;collapsible=0;dropTarget=0;fillColor=none;points=[[0,0.5],[1,0.5]];portConstraint=eastwest;rounded=0;labelBorderColor=#000000;sketch=0;strokeColor=#000000;fontColor=#000000;" vertex="1" parent="2ADz5iWZtIwnanjkUV10-9">
                    <mxGeometry y="25" width="208" height="24" as="geometry"/>
                </mxCell>
                <mxCell id="2ADz5iWZtIwnanjkUV10-11" value="constructor" style="shape=partialRectangle;html=1;whiteSpace=wrap;connectable=0;fillColor=none;top=0;left=0;bottom=0;right=0;overflow=hidden;rounded=0;labelBorderColor=none;sketch=0;strokeColor=default;fontColor=#000000;" vertex="1" parent="2ADz5iWZtIwnanjkUV10-10">
                    <mxGeometry width="105" height="24" as="geometry">
                        <mxRectangle width="105" height="24" as="alternateBounds"/>
                    </mxGeometry>
                </mxCell>
                <mxCell id="2ADz5iWZtIwnanjkUV10-12" value="" style="shape=partialRectangle;html=1;whiteSpace=wrap;connectable=0;fillColor=none;top=0;left=0;bottom=0;right=0;overflow=hidden;rounded=0;labelBorderColor=none;sketch=0;strokeColor=#000000;fontColor=#000000;" vertex="1" parent="2ADz5iWZtIwnanjkUV10-10">
                    <mxGeometry x="105" width="103" height="24" as="geometry">
                        <mxRectangle width="103" height="24" as="alternateBounds"/>
                    </mxGeometry>
                </mxCell>
                <mxCell id="2ADz5iWZtIwnanjkUV10-13" value="" style="shape=tableRow;horizontal=0;startSize=0;swimlaneHead=0;swimlaneBody=0;top=0;left=0;bottom=0;right=0;collapsible=0;dropTarget=0;fillColor=none;points=[[0,0.5],[1,0.5]];portConstraint=eastwest;rounded=0;labelBorderColor=#000000;sketch=0;strokeColor=#000000;fontColor=#000000;" vertex="1" parent="2ADz5iWZtIwnanjkUV10-9">
                    <mxGeometry y="49" width="208" height="24" as="geometry"/>
                </mxCell>
                <mxCell id="2ADz5iWZtIwnanjkUV10-14" value="__proto__" style="shape=partialRectangle;html=1;whiteSpace=wrap;connectable=0;fillColor=none;top=0;left=0;bottom=0;right=0;overflow=hidden;rounded=0;labelBorderColor=none;sketch=0;strokeColor=default;fontColor=#000000;" vertex="1" parent="2ADz5iWZtIwnanjkUV10-13">
                    <mxGeometry width="105" height="24" as="geometry">
                        <mxRectangle width="105" height="24" as="alternateBounds"/>
                    </mxGeometry>
                </mxCell>
                <mxCell id="2ADz5iWZtIwnanjkUV10-15" value="" style="shape=partialRectangle;html=1;whiteSpace=wrap;connectable=0;fillColor=none;top=0;left=0;bottom=0;right=0;overflow=hidden;rounded=0;labelBorderColor=none;sketch=0;strokeColor=#000000;fontColor=#000000;" vertex="1" parent="2ADz5iWZtIwnanjkUV10-13">
                    <mxGeometry x="105" width="103" height="24" as="geometry">
                        <mxRectangle width="103" height="24" as="alternateBounds"/>
                    </mxGeometry>
                </mxCell>
                <mxCell id="2ADz5iWZtIwnanjkUV10-16" value="" style="endArrow=classic;html=1;strokeColor=#d79b00;fontColor=#000000;fillColor=#ffcd28;strokeWidth=2;gradientColor=#ffa500;exitX=1;exitY=0.5;exitDx=0;exitDy=0;" edge="1" parent="2ADz5iWZtIwnanjkUV10-1">
                    <mxGeometry width="50" height="50" relative="1" as="geometry">
                        <mxPoint x="470" y="329.5" as="sourcePoint"/>
                        <mxPoint x="604" y="300" as="targetPoint"/>
                    </mxGeometry>
                </mxCell>
                <mxCell id="2ADz5iWZtIwnanjkUV10-17" value="" style="edgeStyle=elbowEdgeStyle;elbow=vertical;endArrow=classic;html=1;curved=0;rounded=0;endSize=8;startSize=8;fillColor=#ffcd28;gradientColor=#ffa500;strokeColor=#d79b00;strokeWidth=2;entryX=0.798;entryY=0.012;entryDx=0;entryDy=0;entryPerimeter=0;" edge="1" parent="2ADz5iWZtIwnanjkUV10-1">
                    <mxGeometry width="50" height="50" relative="1" as="geometry">
                        <mxPoint x="792" y="329" as="sourcePoint"/>
                        <mxPoint x="446.004" y="300.356" as="targetPoint"/>
                        <Array as="points">
                            <mxPoint x="635.03" y="264"/>
                        </Array>
                    </mxGeometry>
                </mxCell>
                <mxCell id="2ADz5iWZtIwnanjkUV10-18" value="p1实例对象" style="shape=table;startSize=25;container=1;collapsible=0;childLayout=tableLayout;fontStyle=1;align=center;rounded=0;labelBorderColor=none;sketch=0;strokeColor=#000000;fontColor=#000000;fillColor=none;" vertex="1" parent="2ADz5iWZtIwnanjkUV10-1">
                    <mxGeometry x="-11" y="411" width="218" height="49" as="geometry"/>
                </mxCell>
                <mxCell id="2ADz5iWZtIwnanjkUV10-19" value="" style="shape=tableRow;horizontal=0;startSize=0;swimlaneHead=0;swimlaneBody=0;top=0;left=0;bottom=0;right=0;collapsible=0;dropTarget=0;fillColor=none;points=[[0,0.5],[1,0.5]];portConstraint=eastwest;rounded=0;labelBorderColor=#000000;sketch=0;strokeColor=#000000;fontColor=#000000;" vertex="1" parent="2ADz5iWZtIwnanjkUV10-18">
                    <mxGeometry y="25" width="218" height="24" as="geometry"/>
                </mxCell>
                <mxCell id="2ADz5iWZtIwnanjkUV10-20" value="__proto__" style="shape=partialRectangle;html=1;whiteSpace=wrap;connectable=0;fillColor=none;top=0;left=0;bottom=0;right=0;overflow=hidden;rounded=0;labelBorderColor=none;sketch=0;strokeColor=#000000;fontColor=#000000;" vertex="1" parent="2ADz5iWZtIwnanjkUV10-19">
                    <mxGeometry width="110" height="24" as="geometry">
                        <mxRectangle width="110" height="24" as="alternateBounds"/>
                    </mxGeometry>
                </mxCell>
                <mxCell id="2ADz5iWZtIwnanjkUV10-21" value="" style="shape=partialRectangle;html=1;whiteSpace=wrap;connectable=0;fillColor=none;top=0;left=0;bottom=0;right=0;overflow=hidden;rounded=0;labelBorderColor=none;sketch=0;strokeColor=#000000;fontColor=#000000;" vertex="1" parent="2ADz5iWZtIwnanjkUV10-19">
                    <mxGeometry x="110" width="108" height="24" as="geometry">
                        <mxRectangle width="108" height="24" as="alternateBounds"/>
                    </mxGeometry>
                </mxCell>
                <mxCell id="2ADz5iWZtIwnanjkUV10-22" value="" style="endArrow=classic;html=1;strokeColor=#d79b00;fontColor=#000000;fillColor=#ffcd28;strokeWidth=2;gradientColor=#ffa500;exitX=1;exitY=0.5;exitDx=0;exitDy=0;" edge="1" parent="2ADz5iWZtIwnanjkUV10-1">
                    <mxGeometry width="50" height="50" relative="1" as="geometry">
                        <mxPoint x="170" y="451.25" as="sourcePoint"/>
                        <mxPoint x="604" y="311" as="targetPoint"/>
                    </mxGeometry>
                </mxCell>
                <mxCell id="2ADz5iWZtIwnanjkUV10-23" value="函数对象：function Object () {}" style="shape=table;startSize=25;container=1;collapsible=0;childLayout=tableLayout;fontStyle=1;align=center;rounded=0;labelBorderColor=none;sketch=0;strokeColor=#000000;fontColor=#000000;fillColor=none;" vertex="1" parent="2ADz5iWZtIwnanjkUV10-1">
                    <mxGeometry x="297" y="156" width="218" height="73" as="geometry"/>
                </mxCell>
                <mxCell id="2ADz5iWZtIwnanjkUV10-24" value="" style="shape=tableRow;horizontal=0;startSize=0;swimlaneHead=0;swimlaneBody=0;top=0;left=0;bottom=0;right=0;collapsible=0;dropTarget=0;fillColor=none;points=[[0,0.5],[1,0.5]];portConstraint=eastwest;rounded=0;labelBorderColor=#000000;sketch=0;strokeColor=#000000;fontColor=#000000;" vertex="1" parent="2ADz5iWZtIwnanjkUV10-23">
                    <mxGeometry y="25" width="218" height="24" as="geometry"/>
                </mxCell>
                <mxCell id="2ADz5iWZtIwnanjkUV10-25" value="prototype" style="shape=partialRectangle;html=1;whiteSpace=wrap;connectable=0;fillColor=none;top=0;left=0;bottom=0;right=0;overflow=hidden;rounded=0;labelBorderColor=none;sketch=0;strokeColor=#000000;fontColor=#000000;" vertex="1" parent="2ADz5iWZtIwnanjkUV10-24">
                    <mxGeometry width="110" height="24" as="geometry">
                        <mxRectangle width="110" height="24" as="alternateBounds"/>
                    </mxGeometry>
                </mxCell>
                <mxCell id="2ADz5iWZtIwnanjkUV10-26" value="" style="shape=partialRectangle;html=1;whiteSpace=wrap;connectable=0;fillColor=none;top=0;left=0;bottom=0;right=0;overflow=hidden;rounded=0;labelBorderColor=none;sketch=0;strokeColor=#000000;fontColor=#000000;" vertex="1" parent="2ADz5iWZtIwnanjkUV10-24">
                    <mxGeometry x="110" width="108" height="24" as="geometry">
                        <mxRectangle width="108" height="24" as="alternateBounds"/>
                    </mxGeometry>
                </mxCell>
                <mxCell id="2ADz5iWZtIwnanjkUV10-27" value="" style="shape=tableRow;horizontal=0;startSize=0;swimlaneHead=0;swimlaneBody=0;top=0;left=0;bottom=0;right=0;collapsible=0;dropTarget=0;fillColor=none;points=[[0,0.5],[1,0.5]];portConstraint=eastwest;rounded=0;labelBorderColor=#000000;sketch=0;strokeColor=#000000;fontColor=#000000;" vertex="1" parent="2ADz5iWZtIwnanjkUV10-23">
                    <mxGeometry y="49" width="218" height="24" as="geometry"/>
                </mxCell>
                <mxCell id="2ADz5iWZtIwnanjkUV10-28" value="__proto__" style="shape=partialRectangle;html=1;whiteSpace=wrap;connectable=0;fillColor=none;top=0;left=0;bottom=0;right=0;overflow=hidden;rounded=0;labelBorderColor=none;sketch=0;strokeColor=#000000;fontColor=#000000;" vertex="1" parent="2ADz5iWZtIwnanjkUV10-27">
                    <mxGeometry width="110" height="24" as="geometry">
                        <mxRectangle width="110" height="24" as="alternateBounds"/>
                    </mxGeometry>
                </mxCell>
                <mxCell id="2ADz5iWZtIwnanjkUV10-29" value="" style="shape=partialRectangle;html=1;whiteSpace=wrap;connectable=0;fillColor=none;top=0;left=0;bottom=0;right=0;overflow=hidden;rounded=0;labelBorderColor=none;sketch=0;strokeColor=#000000;fontColor=#000000;" vertex="1" parent="2ADz5iWZtIwnanjkUV10-27">
                    <mxGeometry x="110" width="108" height="24" as="geometry">
                        <mxRectangle width="108" height="24" as="alternateBounds"/>
                    </mxGeometry>
                </mxCell>
                <mxCell id="2ADz5iWZtIwnanjkUV10-30" value="Object函数显式原型对象" style="shape=table;startSize=25;container=1;collapsible=0;childLayout=tableLayout;fontStyle=1;align=center;rounded=0;labelBorderColor=none;sketch=0;strokeColor=#000000;fontColor=#000000;fillColor=none;" vertex="1" parent="2ADz5iWZtIwnanjkUV10-1">
                    <mxGeometry x="604" y="160" width="208" height="73" as="geometry"/>
                </mxCell>
                <mxCell id="2ADz5iWZtIwnanjkUV10-31" value="" style="shape=tableRow;horizontal=0;startSize=0;swimlaneHead=0;swimlaneBody=0;top=0;left=0;bottom=0;right=0;collapsible=0;dropTarget=0;fillColor=none;points=[[0,0.5],[1,0.5]];portConstraint=eastwest;rounded=0;labelBorderColor=#000000;sketch=0;strokeColor=#000000;fontColor=#000000;" vertex="1" parent="2ADz5iWZtIwnanjkUV10-30">
                    <mxGeometry y="25" width="208" height="24" as="geometry"/>
                </mxCell>
                <mxCell id="2ADz5iWZtIwnanjkUV10-32" value="constructor" style="shape=partialRectangle;html=1;whiteSpace=wrap;connectable=0;fillColor=none;top=0;left=0;bottom=0;right=0;overflow=hidden;rounded=0;labelBorderColor=none;sketch=0;strokeColor=default;fontColor=#000000;" vertex="1" parent="2ADz5iWZtIwnanjkUV10-31">
                    <mxGeometry width="105" height="24" as="geometry">
                        <mxRectangle width="105" height="24" as="alternateBounds"/>
                    </mxGeometry>
                </mxCell>
                <mxCell id="2ADz5iWZtIwnanjkUV10-33" value="" style="shape=partialRectangle;html=1;whiteSpace=wrap;connectable=0;fillColor=none;top=0;left=0;bottom=0;right=0;overflow=hidden;rounded=0;labelBorderColor=none;sketch=0;strokeColor=#000000;fontColor=#000000;" vertex="1" parent="2ADz5iWZtIwnanjkUV10-31">
                    <mxGeometry x="105" width="103" height="24" as="geometry">
                        <mxRectangle width="103" height="24" as="alternateBounds"/>
                    </mxGeometry>
                </mxCell>
                <mxCell id="2ADz5iWZtIwnanjkUV10-34" value="" style="shape=tableRow;horizontal=0;startSize=0;swimlaneHead=0;swimlaneBody=0;top=0;left=0;bottom=0;right=0;collapsible=0;dropTarget=0;fillColor=none;points=[[0,0.5],[1,0.5]];portConstraint=eastwest;rounded=0;labelBorderColor=#000000;sketch=0;strokeColor=#000000;fontColor=#000000;" vertex="1" parent="2ADz5iWZtIwnanjkUV10-30">
                    <mxGeometry y="49" width="208" height="24" as="geometry"/>
                </mxCell>
                <mxCell id="2ADz5iWZtIwnanjkUV10-35" value="__proto__" style="shape=partialRectangle;html=1;whiteSpace=wrap;connectable=0;fillColor=none;top=0;left=0;bottom=0;right=0;overflow=hidden;rounded=0;labelBorderColor=none;sketch=0;strokeColor=default;fontColor=#000000;" vertex="1" parent="2ADz5iWZtIwnanjkUV10-34">
                    <mxGeometry width="105" height="24" as="geometry">
                        <mxRectangle width="105" height="24" as="alternateBounds"/>
                    </mxGeometry>
                </mxCell>
                <mxCell id="2ADz5iWZtIwnanjkUV10-36" value="null" style="shape=partialRectangle;html=1;whiteSpace=wrap;connectable=0;fillColor=none;top=0;left=0;bottom=0;right=0;overflow=hidden;rounded=0;labelBorderColor=none;sketch=0;strokeColor=#000000;fontColor=#000000;" vertex="1" parent="2ADz5iWZtIwnanjkUV10-34">
                    <mxGeometry x="105" width="103" height="24" as="geometry">
                        <mxRectangle width="103" height="24" as="alternateBounds"/>
                    </mxGeometry>
                </mxCell>
                <mxCell id="2ADz5iWZtIwnanjkUV10-37" value="" style="endArrow=classic;html=1;strokeColor=#2D7600;fontColor=#000000;fillColor=#60a917;strokeWidth=2;exitX=1;exitY=0.5;exitDx=0;exitDy=0;entryX=0;entryY=0.25;entryDx=0;entryDy=0;" edge="1" parent="2ADz5iWZtIwnanjkUV10-1" target="2ADz5iWZtIwnanjkUV10-30">
                    <mxGeometry width="50" height="50" relative="1" as="geometry">
                        <mxPoint x="467.29" y="196.53" as="sourcePoint"/>
                        <mxPoint x="241.99599999999992" y="7.001999999999981" as="targetPoint"/>
                    </mxGeometry>
                </mxCell>
                <mxCell id="2ADz5iWZtIwnanjkUV10-38" value="" style="edgeStyle=elbowEdgeStyle;elbow=vertical;endArrow=classic;html=1;curved=0;rounded=0;endSize=8;startSize=8;fillColor=#60a917;strokeColor=#2D7600;strokeWidth=2;" edge="1" parent="2ADz5iWZtIwnanjkUV10-1">
                    <mxGeometry width="50" height="50" relative="1" as="geometry">
                        <mxPoint x="783" y="198" as="sourcePoint"/>
                        <mxPoint x="437" y="155" as="targetPoint"/>
                        <Array as="points">
                            <mxPoint x="611" y="122"/>
                        </Array>
                    </mxGeometry>
                </mxCell>
                <mxCell id="2ADz5iWZtIwnanjkUV10-39" value="" style="edgeStyle=elbowEdgeStyle;elbow=horizontal;endArrow=classic;html=1;curved=0;rounded=0;endSize=8;startSize=8;fillColor=#60a917;strokeColor=#2D7600;strokeWidth=2;entryX=1.01;entryY=0.164;entryDx=0;entryDy=0;entryPerimeter=0;" edge="1" parent="2ADz5iWZtIwnanjkUV10-1" source="2ADz5iWZtIwnanjkUV10-13" target="2ADz5iWZtIwnanjkUV10-30">
                    <mxGeometry width="50" height="50" relative="1" as="geometry">
                        <mxPoint x="376" y="284" as="sourcePoint"/>
                        <mxPoint x="820" y="170" as="targetPoint"/>
                        <Array as="points">
                            <mxPoint x="845" y="256"/>
                        </Array>
                    </mxGeometry>
                </mxCell>
                <mxCell id="Q7ggzUvPApOqfWUNvKUc-0" value="函数对象：function Funtion () {}" style="shape=table;startSize=25;container=1;collapsible=0;childLayout=tableLayout;fontStyle=1;align=center;rounded=0;labelBorderColor=none;sketch=0;strokeColor=#000000;fontColor=#000000;fillColor=none;" vertex="1" parent="2ADz5iWZtIwnanjkUV10-1">
                    <mxGeometry x="294" y="-13" width="218" height="73" as="geometry"/>
                </mxCell>
                <mxCell id="Q7ggzUvPApOqfWUNvKUc-1" value="" style="shape=tableRow;horizontal=0;startSize=0;swimlaneHead=0;swimlaneBody=0;top=0;left=0;bottom=0;right=0;collapsible=0;dropTarget=0;fillColor=none;points=[[0,0.5],[1,0.5]];portConstraint=eastwest;rounded=0;labelBorderColor=#000000;sketch=0;strokeColor=#000000;fontColor=#000000;" vertex="1" parent="Q7ggzUvPApOqfWUNvKUc-0">
                    <mxGeometry y="25" width="218" height="24" as="geometry"/>
                </mxCell>
                <mxCell id="Q7ggzUvPApOqfWUNvKUc-2" value="prototype" style="shape=partialRectangle;html=1;whiteSpace=wrap;connectable=0;fillColor=none;top=0;left=0;bottom=0;right=0;overflow=hidden;rounded=0;labelBorderColor=none;sketch=0;strokeColor=#000000;fontColor=#000000;" vertex="1" parent="Q7ggzUvPApOqfWUNvKUc-1">
                    <mxGeometry width="110" height="24" as="geometry">
                        <mxRectangle width="110" height="24" as="alternateBounds"/>
                    </mxGeometry>
                </mxCell>
                <mxCell id="Q7ggzUvPApOqfWUNvKUc-3" value="" style="shape=partialRectangle;html=1;whiteSpace=wrap;connectable=0;fillColor=none;top=0;left=0;bottom=0;right=0;overflow=hidden;rounded=0;labelBorderColor=none;sketch=0;strokeColor=#000000;fontColor=#000000;" vertex="1" parent="Q7ggzUvPApOqfWUNvKUc-1">
                    <mxGeometry x="110" width="108" height="24" as="geometry">
                        <mxRectangle width="108" height="24" as="alternateBounds"/>
                    </mxGeometry>
                </mxCell>
                <mxCell id="Q7ggzUvPApOqfWUNvKUc-4" value="" style="shape=tableRow;horizontal=0;startSize=0;swimlaneHead=0;swimlaneBody=0;top=0;left=0;bottom=0;right=0;collapsible=0;dropTarget=0;fillColor=none;points=[[0,0.5],[1,0.5]];portConstraint=eastwest;rounded=0;labelBorderColor=#000000;sketch=0;strokeColor=#000000;fontColor=#000000;" vertex="1" parent="Q7ggzUvPApOqfWUNvKUc-0">
                    <mxGeometry y="49" width="218" height="24" as="geometry"/>
                </mxCell>
                <mxCell id="Q7ggzUvPApOqfWUNvKUc-5" value="__proto__" style="shape=partialRectangle;html=1;whiteSpace=wrap;connectable=0;fillColor=none;top=0;left=0;bottom=0;right=0;overflow=hidden;rounded=0;labelBorderColor=none;sketch=0;strokeColor=#000000;fontColor=#000000;" vertex="1" parent="Q7ggzUvPApOqfWUNvKUc-4">
                    <mxGeometry width="110" height="24" as="geometry">
                        <mxRectangle width="110" height="24" as="alternateBounds"/>
                    </mxGeometry>
                </mxCell>
                <mxCell id="Q7ggzUvPApOqfWUNvKUc-6" value="" style="shape=partialRectangle;html=1;whiteSpace=wrap;connectable=0;fillColor=none;top=0;left=0;bottom=0;right=0;overflow=hidden;rounded=0;labelBorderColor=none;sketch=0;strokeColor=#000000;fontColor=#000000;" vertex="1" parent="Q7ggzUvPApOqfWUNvKUc-4">
                    <mxGeometry x="110" width="108" height="24" as="geometry">
                        <mxRectangle width="108" height="24" as="alternateBounds"/>
                    </mxGeometry>
                </mxCell>
                <mxCell id="Q7ggzUvPApOqfWUNvKUc-7" value="Funtion函数显式原型对象" style="shape=table;startSize=25;container=1;collapsible=0;childLayout=tableLayout;fontStyle=1;align=center;rounded=0;labelBorderColor=none;sketch=0;strokeColor=#000000;fontColor=#000000;fillColor=none;" vertex="1" parent="2ADz5iWZtIwnanjkUV10-1">
                    <mxGeometry x="597" y="-18" width="208" height="73" as="geometry"/>
                </mxCell>
                <mxCell id="Q7ggzUvPApOqfWUNvKUc-8" value="" style="shape=tableRow;horizontal=0;startSize=0;swimlaneHead=0;swimlaneBody=0;top=0;left=0;bottom=0;right=0;collapsible=0;dropTarget=0;fillColor=none;points=[[0,0.5],[1,0.5]];portConstraint=eastwest;rounded=0;labelBorderColor=#000000;sketch=0;strokeColor=#000000;fontColor=#000000;" vertex="1" parent="Q7ggzUvPApOqfWUNvKUc-7">
                    <mxGeometry y="25" width="208" height="24" as="geometry"/>
                </mxCell>
                <mxCell id="Q7ggzUvPApOqfWUNvKUc-9" value="constructor" style="shape=partialRectangle;html=1;whiteSpace=wrap;connectable=0;fillColor=none;top=0;left=0;bottom=0;right=0;overflow=hidden;rounded=0;labelBorderColor=none;sketch=0;strokeColor=default;fontColor=#000000;" vertex="1" parent="Q7ggzUvPApOqfWUNvKUc-8">
                    <mxGeometry width="105" height="24" as="geometry">
                        <mxRectangle width="105" height="24" as="alternateBounds"/>
                    </mxGeometry>
                </mxCell>
                <mxCell id="Q7ggzUvPApOqfWUNvKUc-10" value="" style="shape=partialRectangle;html=1;whiteSpace=wrap;connectable=0;fillColor=none;top=0;left=0;bottom=0;right=0;overflow=hidden;rounded=0;labelBorderColor=none;sketch=0;strokeColor=#000000;fontColor=#000000;" vertex="1" parent="Q7ggzUvPApOqfWUNvKUc-8">
                    <mxGeometry x="105" width="103" height="24" as="geometry">
                        <mxRectangle width="103" height="24" as="alternateBounds"/>
                    </mxGeometry>
                </mxCell>
                <mxCell id="Q7ggzUvPApOqfWUNvKUc-11" value="" style="shape=tableRow;horizontal=0;startSize=0;swimlaneHead=0;swimlaneBody=0;top=0;left=0;bottom=0;right=0;collapsible=0;dropTarget=0;fillColor=none;points=[[0,0.5],[1,0.5]];portConstraint=eastwest;rounded=0;labelBorderColor=#000000;sketch=0;strokeColor=#000000;fontColor=#000000;" vertex="1" parent="Q7ggzUvPApOqfWUNvKUc-7">
                    <mxGeometry y="49" width="208" height="24" as="geometry"/>
                </mxCell>
                <mxCell id="Q7ggzUvPApOqfWUNvKUc-12" value="__proto__" style="shape=partialRectangle;html=1;whiteSpace=wrap;connectable=0;fillColor=none;top=0;left=0;bottom=0;right=0;overflow=hidden;rounded=0;labelBorderColor=none;sketch=0;strokeColor=default;fontColor=#000000;" vertex="1" parent="Q7ggzUvPApOqfWUNvKUc-11">
                    <mxGeometry width="105" height="24" as="geometry">
                        <mxRectangle width="105" height="24" as="alternateBounds"/>
                    </mxGeometry>
                </mxCell>
                <mxCell id="Q7ggzUvPApOqfWUNvKUc-13" value="" style="shape=partialRectangle;html=1;whiteSpace=wrap;connectable=0;fillColor=none;top=0;left=0;bottom=0;right=0;overflow=hidden;rounded=0;labelBorderColor=none;sketch=0;strokeColor=#000000;fontColor=#000000;" vertex="1" parent="Q7ggzUvPApOqfWUNvKUc-11">
                    <mxGeometry x="105" width="103" height="24" as="geometry">
                        <mxRectangle width="103" height="24" as="alternateBounds"/>
                    </mxGeometry>
                </mxCell>
                <mxCell id="Q7ggzUvPApOqfWUNvKUc-14" value="" style="endArrow=classic;html=1;strokeColor=#001DBC;fontColor=#000000;fillColor=#0050ef;strokeWidth=2;exitX=1;exitY=0.5;exitDx=0;exitDy=0;entryX=0.001;entryY=0.148;entryDx=0;entryDy=0;entryPerimeter=0;" edge="1" parent="2ADz5iWZtIwnanjkUV10-1" target="Q7ggzUvPApOqfWUNvKUc-7">
                    <mxGeometry width="50" height="50" relative="1" as="geometry">
                        <mxPoint x="464.99999999999994" y="22.279999999999973" as="sourcePoint"/>
                        <mxPoint x="602" y="-5" as="targetPoint"/>
                    </mxGeometry>
                </mxCell>
                <mxCell id="Q7ggzUvPApOqfWUNvKUc-15" value="" style="edgeStyle=elbowEdgeStyle;elbow=vertical;endArrow=classic;html=1;curved=0;rounded=0;endSize=8;startSize=8;fillColor=#0050ef;strokeColor=#001DBC;strokeWidth=2;" edge="1" parent="2ADz5iWZtIwnanjkUV10-1">
                    <mxGeometry width="50" height="50" relative="1" as="geometry">
                        <mxPoint x="763" y="24" as="sourcePoint"/>
                        <mxPoint x="417" y="-19" as="targetPoint"/>
                        <Array as="points">
                            <mxPoint x="591" y="-52"/>
                        </Array>
                    </mxGeometry>
                </mxCell>
                <mxCell id="Q7ggzUvPApOqfWUNvKUc-16" value="" style="endArrow=classic;html=1;strokeColor=#001DBC;fontColor=#000000;fillColor=#0050ef;strokeWidth=2;exitX=1;exitY=0.5;exitDx=0;exitDy=0;entryX=0;entryY=0.25;entryDx=0;entryDy=0;" edge="1" parent="2ADz5iWZtIwnanjkUV10-1" target="Q7ggzUvPApOqfWUNvKUc-7">
                    <mxGeometry width="50" height="50" relative="1" as="geometry">
                        <mxPoint x="469" y="50.479999999999976" as="sourcePoint"/>
                        <mxPoint x="601.2080000000001" y="21.003999999999973" as="targetPoint"/>
                    </mxGeometry>
                </mxCell>
                <mxCell id="Q7ggzUvPApOqfWUNvKUc-17" value="" style="endArrow=classic;html=1;strokeColor=#3700CC;fontColor=#000000;fillColor=#6a00ff;strokeWidth=2;exitX=1;exitY=0.5;exitDx=0;exitDy=0;" edge="1" parent="2ADz5iWZtIwnanjkUV10-1">
                    <mxGeometry width="50" height="50" relative="1" as="geometry">
                        <mxPoint x="422.99999999999994" y="352.28" as="sourcePoint"/>
                        <mxPoint x="592" y="6" as="targetPoint"/>
                    </mxGeometry>
                </mxCell>
                <mxCell id="Q7ggzUvPApOqfWUNvKUc-18" value="" style="endArrow=classic;html=1;strokeColor=#001DBC;fontColor=#000000;fillColor=#0050ef;strokeWidth=2;exitX=1;exitY=0.5;exitDx=0;exitDy=0;entryX=0.708;entryY=-0.036;entryDx=0;entryDy=0;entryPerimeter=0;" edge="1" parent="2ADz5iWZtIwnanjkUV10-1" target="2ADz5iWZtIwnanjkUV10-30">
                    <mxGeometry width="50" height="50" relative="1" as="geometry">
                        <mxPoint x="751" y="43.610000000000014" as="sourcePoint"/>
                        <mxPoint x="879" y="-6.620000000000001" as="targetPoint"/>
                        <Array as="points">
                            <mxPoint x="751" y="101"/>
                        </Array>
                    </mxGeometry>
                </mxCell>
                <mxCell id="Q7ggzUvPApOqfWUNvKUc-20" value="" style="endArrow=classic;html=1;strokeColor=#3700CC;fontColor=#000000;fillColor=#6a00ff;strokeWidth=2;exitX=1;exitY=0.5;exitDx=0;exitDy=0;" edge="1" parent="2ADz5iWZtIwnanjkUV10-1">
                    <mxGeometry width="50" height="50" relative="1" as="geometry">
                        <mxPoint x="444" y="220.27999999999997" as="sourcePoint"/>
                        <mxPoint x="582" y="18" as="targetPoint"/>
                    </mxGeometry>
                </mxCell>
            </root>
        </mxGraphModel>
    </diagram>
    <diagram name="构造obj实例对象" id="dw281nhG4ZDuAGEyOIrc">
        <mxGraphModel dx="1402" dy="962" grid="0" gridSize="10" guides="1" tooltips="1" connect="1" arrows="1" fold="1" page="0" pageScale="1" pageWidth="1169" pageHeight="1654" background="#ffffff" math="0" shadow="0">
            <root>
                <mxCell id="5vw3lcFEC0u9zgBc4E5H-0"/>
                <mxCell id="5vw3lcFEC0u9zgBc4E5H-1" parent="5vw3lcFEC0u9zgBc4E5H-0"/>
                <mxCell id="5vw3lcFEC0u9zgBc4E5H-2" value="函数对象：function Person () {}" style="shape=table;startSize=25;container=1;collapsible=0;childLayout=tableLayout;fontStyle=1;align=center;rounded=0;labelBorderColor=none;sketch=0;strokeColor=#000000;fontColor=#000000;fillColor=none;" vertex="1" parent="5vw3lcFEC0u9zgBc4E5H-1">
                    <mxGeometry x="297" y="291" width="218" height="73" as="geometry"/>
                </mxCell>
                <mxCell id="5vw3lcFEC0u9zgBc4E5H-3" value="" style="shape=tableRow;horizontal=0;startSize=0;swimlaneHead=0;swimlaneBody=0;top=0;left=0;bottom=0;right=0;collapsible=0;dropTarget=0;fillColor=none;points=[[0,0.5],[1,0.5]];portConstraint=eastwest;rounded=0;labelBorderColor=#000000;sketch=0;strokeColor=#000000;fontColor=#000000;" vertex="1" parent="5vw3lcFEC0u9zgBc4E5H-2">
                    <mxGeometry y="25" width="218" height="24" as="geometry"/>
                </mxCell>
                <mxCell id="5vw3lcFEC0u9zgBc4E5H-4" value="prototype" style="shape=partialRectangle;html=1;whiteSpace=wrap;connectable=0;fillColor=none;top=0;left=0;bottom=0;right=0;overflow=hidden;rounded=0;labelBorderColor=none;sketch=0;strokeColor=#000000;fontColor=#000000;" vertex="1" parent="5vw3lcFEC0u9zgBc4E5H-3">
                    <mxGeometry width="110" height="24" as="geometry">
                        <mxRectangle width="110" height="24" as="alternateBounds"/>
                    </mxGeometry>
                </mxCell>
                <mxCell id="5vw3lcFEC0u9zgBc4E5H-5" value="" style="shape=partialRectangle;html=1;whiteSpace=wrap;connectable=0;fillColor=none;top=0;left=0;bottom=0;right=0;overflow=hidden;rounded=0;labelBorderColor=none;sketch=0;strokeColor=#000000;fontColor=#000000;" vertex="1" parent="5vw3lcFEC0u9zgBc4E5H-3">
                    <mxGeometry x="110" width="108" height="24" as="geometry">
                        <mxRectangle width="108" height="24" as="alternateBounds"/>
                    </mxGeometry>
                </mxCell>
                <mxCell id="5vw3lcFEC0u9zgBc4E5H-6" value="" style="shape=tableRow;horizontal=0;startSize=0;swimlaneHead=0;swimlaneBody=0;top=0;left=0;bottom=0;right=0;collapsible=0;dropTarget=0;fillColor=none;points=[[0,0.5],[1,0.5]];portConstraint=eastwest;rounded=0;labelBorderColor=#000000;sketch=0;strokeColor=#000000;fontColor=#000000;" vertex="1" parent="5vw3lcFEC0u9zgBc4E5H-2">
                    <mxGeometry y="49" width="218" height="24" as="geometry"/>
                </mxCell>
                <mxCell id="5vw3lcFEC0u9zgBc4E5H-7" value="__proto__" style="shape=partialRectangle;html=1;whiteSpace=wrap;connectable=0;fillColor=none;top=0;left=0;bottom=0;right=0;overflow=hidden;rounded=0;labelBorderColor=none;sketch=0;strokeColor=#000000;fontColor=#000000;" vertex="1" parent="5vw3lcFEC0u9zgBc4E5H-6">
                    <mxGeometry width="110" height="24" as="geometry">
                        <mxRectangle width="110" height="24" as="alternateBounds"/>
                    </mxGeometry>
                </mxCell>
                <mxCell id="5vw3lcFEC0u9zgBc4E5H-8" value="" style="shape=partialRectangle;html=1;whiteSpace=wrap;connectable=0;fillColor=none;top=0;left=0;bottom=0;right=0;overflow=hidden;rounded=0;labelBorderColor=none;sketch=0;strokeColor=#000000;fontColor=#000000;" vertex="1" parent="5vw3lcFEC0u9zgBc4E5H-6">
                    <mxGeometry x="110" width="108" height="24" as="geometry">
                        <mxRectangle width="108" height="24" as="alternateBounds"/>
                    </mxGeometry>
                </mxCell>
                <mxCell id="5vw3lcFEC0u9zgBc4E5H-9" value="Person函数显式原型对象" style="shape=table;startSize=25;container=1;collapsible=0;childLayout=tableLayout;fontStyle=1;align=center;rounded=0;labelBorderColor=none;sketch=0;strokeColor=#000000;fontColor=#000000;fillColor=none;" vertex="1" parent="5vw3lcFEC0u9zgBc4E5H-1">
                    <mxGeometry x="606" y="292" width="208" height="73" as="geometry"/>
                </mxCell>
                <mxCell id="5vw3lcFEC0u9zgBc4E5H-10" value="" style="shape=tableRow;horizontal=0;startSize=0;swimlaneHead=0;swimlaneBody=0;top=0;left=0;bottom=0;right=0;collapsible=0;dropTarget=0;fillColor=none;points=[[0,0.5],[1,0.5]];portConstraint=eastwest;rounded=0;labelBorderColor=#000000;sketch=0;strokeColor=#000000;fontColor=#000000;" vertex="1" parent="5vw3lcFEC0u9zgBc4E5H-9">
                    <mxGeometry y="25" width="208" height="24" as="geometry"/>
                </mxCell>
                <mxCell id="5vw3lcFEC0u9zgBc4E5H-11" value="constructor" style="shape=partialRectangle;html=1;whiteSpace=wrap;connectable=0;fillColor=none;top=0;left=0;bottom=0;right=0;overflow=hidden;rounded=0;labelBorderColor=none;sketch=0;strokeColor=default;fontColor=#000000;" vertex="1" parent="5vw3lcFEC0u9zgBc4E5H-10">
                    <mxGeometry width="105" height="24" as="geometry">
                        <mxRectangle width="105" height="24" as="alternateBounds"/>
                    </mxGeometry>
                </mxCell>
                <mxCell id="5vw3lcFEC0u9zgBc4E5H-12" value="" style="shape=partialRectangle;html=1;whiteSpace=wrap;connectable=0;fillColor=none;top=0;left=0;bottom=0;right=0;overflow=hidden;rounded=0;labelBorderColor=none;sketch=0;strokeColor=#000000;fontColor=#000000;" vertex="1" parent="5vw3lcFEC0u9zgBc4E5H-10">
                    <mxGeometry x="105" width="103" height="24" as="geometry">
                        <mxRectangle width="103" height="24" as="alternateBounds"/>
                    </mxGeometry>
                </mxCell>
                <mxCell id="5vw3lcFEC0u9zgBc4E5H-13" value="" style="shape=tableRow;horizontal=0;startSize=0;swimlaneHead=0;swimlaneBody=0;top=0;left=0;bottom=0;right=0;collapsible=0;dropTarget=0;fillColor=none;points=[[0,0.5],[1,0.5]];portConstraint=eastwest;rounded=0;labelBorderColor=#000000;sketch=0;strokeColor=#000000;fontColor=#000000;" vertex="1" parent="5vw3lcFEC0u9zgBc4E5H-9">
                    <mxGeometry y="49" width="208" height="24" as="geometry"/>
                </mxCell>
                <mxCell id="5vw3lcFEC0u9zgBc4E5H-14" value="__proto__" style="shape=partialRectangle;html=1;whiteSpace=wrap;connectable=0;fillColor=none;top=0;left=0;bottom=0;right=0;overflow=hidden;rounded=0;labelBorderColor=none;sketch=0;strokeColor=default;fontColor=#000000;" vertex="1" parent="5vw3lcFEC0u9zgBc4E5H-13">
                    <mxGeometry width="105" height="24" as="geometry">
                        <mxRectangle width="105" height="24" as="alternateBounds"/>
                    </mxGeometry>
                </mxCell>
                <mxCell id="5vw3lcFEC0u9zgBc4E5H-15" value="" style="shape=partialRectangle;html=1;whiteSpace=wrap;connectable=0;fillColor=none;top=0;left=0;bottom=0;right=0;overflow=hidden;rounded=0;labelBorderColor=none;sketch=0;strokeColor=#000000;fontColor=#000000;" vertex="1" parent="5vw3lcFEC0u9zgBc4E5H-13">
                    <mxGeometry x="105" width="103" height="24" as="geometry">
                        <mxRectangle width="103" height="24" as="alternateBounds"/>
                    </mxGeometry>
                </mxCell>
                <mxCell id="5vw3lcFEC0u9zgBc4E5H-16" value="" style="endArrow=classic;html=1;strokeColor=#d79b00;fontColor=#000000;fillColor=#ffcd28;strokeWidth=2;gradientColor=#ffa500;exitX=1;exitY=0.5;exitDx=0;exitDy=0;" edge="1" parent="5vw3lcFEC0u9zgBc4E5H-1">
                    <mxGeometry width="50" height="50" relative="1" as="geometry">
                        <mxPoint x="470" y="329.5" as="sourcePoint"/>
                        <mxPoint x="604" y="300" as="targetPoint"/>
                    </mxGeometry>
                </mxCell>
                <mxCell id="5vw3lcFEC0u9zgBc4E5H-17" value="" style="edgeStyle=elbowEdgeStyle;elbow=vertical;endArrow=classic;html=1;curved=0;rounded=0;endSize=8;startSize=8;fillColor=#ffcd28;gradientColor=#ffa500;strokeColor=#d79b00;strokeWidth=2;entryX=0.798;entryY=0.012;entryDx=0;entryDy=0;entryPerimeter=0;" edge="1" parent="5vw3lcFEC0u9zgBc4E5H-1">
                    <mxGeometry width="50" height="50" relative="1" as="geometry">
                        <mxPoint x="792" y="329" as="sourcePoint"/>
                        <mxPoint x="446.004" y="300.356" as="targetPoint"/>
                        <Array as="points">
                            <mxPoint x="635.03" y="264"/>
                        </Array>
                    </mxGeometry>
                </mxCell>
                <mxCell id="5vw3lcFEC0u9zgBc4E5H-18" value="p1实例对象：new Person()" style="shape=table;startSize=25;container=1;collapsible=0;childLayout=tableLayout;fontStyle=1;align=center;rounded=0;labelBorderColor=none;sketch=0;strokeColor=#000000;fontColor=#000000;fillColor=none;" vertex="1" parent="5vw3lcFEC0u9zgBc4E5H-1">
                    <mxGeometry x="-11" y="411" width="218" height="49" as="geometry"/>
                </mxCell>
                <mxCell id="5vw3lcFEC0u9zgBc4E5H-19" value="" style="shape=tableRow;horizontal=0;startSize=0;swimlaneHead=0;swimlaneBody=0;top=0;left=0;bottom=0;right=0;collapsible=0;dropTarget=0;fillColor=none;points=[[0,0.5],[1,0.5]];portConstraint=eastwest;rounded=0;labelBorderColor=#000000;sketch=0;strokeColor=#000000;fontColor=#000000;" vertex="1" parent="5vw3lcFEC0u9zgBc4E5H-18">
                    <mxGeometry y="25" width="218" height="24" as="geometry"/>
                </mxCell>
                <mxCell id="5vw3lcFEC0u9zgBc4E5H-20" value="__proto__" style="shape=partialRectangle;html=1;whiteSpace=wrap;connectable=0;fillColor=none;top=0;left=0;bottom=0;right=0;overflow=hidden;rounded=0;labelBorderColor=none;sketch=0;strokeColor=#000000;fontColor=#000000;" vertex="1" parent="5vw3lcFEC0u9zgBc4E5H-19">
                    <mxGeometry width="110" height="24" as="geometry">
                        <mxRectangle width="110" height="24" as="alternateBounds"/>
                    </mxGeometry>
                </mxCell>
                <mxCell id="5vw3lcFEC0u9zgBc4E5H-21" value="" style="shape=partialRectangle;html=1;whiteSpace=wrap;connectable=0;fillColor=none;top=0;left=0;bottom=0;right=0;overflow=hidden;rounded=0;labelBorderColor=none;sketch=0;strokeColor=#000000;fontColor=#000000;" vertex="1" parent="5vw3lcFEC0u9zgBc4E5H-19">
                    <mxGeometry x="110" width="108" height="24" as="geometry">
                        <mxRectangle width="108" height="24" as="alternateBounds"/>
                    </mxGeometry>
                </mxCell>
                <mxCell id="5vw3lcFEC0u9zgBc4E5H-22" value="" style="endArrow=classic;html=1;strokeColor=#d79b00;fontColor=#000000;fillColor=#ffcd28;strokeWidth=2;gradientColor=#ffa500;exitX=1;exitY=0.5;exitDx=0;exitDy=0;" edge="1" parent="5vw3lcFEC0u9zgBc4E5H-1">
                    <mxGeometry width="50" height="50" relative="1" as="geometry">
                        <mxPoint x="170" y="451.25" as="sourcePoint"/>
                        <mxPoint x="604" y="311" as="targetPoint"/>
                    </mxGeometry>
                </mxCell>
                <mxCell id="5vw3lcFEC0u9zgBc4E5H-23" value="函数对象：function Object () {}" style="shape=table;startSize=25;container=1;collapsible=0;childLayout=tableLayout;fontStyle=1;align=center;rounded=0;labelBorderColor=none;sketch=0;strokeColor=#000000;fontColor=#000000;fillColor=none;" vertex="1" parent="5vw3lcFEC0u9zgBc4E5H-1">
                    <mxGeometry x="297" y="156" width="218" height="73" as="geometry"/>
                </mxCell>
                <mxCell id="5vw3lcFEC0u9zgBc4E5H-24" value="" style="shape=tableRow;horizontal=0;startSize=0;swimlaneHead=0;swimlaneBody=0;top=0;left=0;bottom=0;right=0;collapsible=0;dropTarget=0;fillColor=none;points=[[0,0.5],[1,0.5]];portConstraint=eastwest;rounded=0;labelBorderColor=#000000;sketch=0;strokeColor=#000000;fontColor=#000000;" vertex="1" parent="5vw3lcFEC0u9zgBc4E5H-23">
                    <mxGeometry y="25" width="218" height="24" as="geometry"/>
                </mxCell>
                <mxCell id="5vw3lcFEC0u9zgBc4E5H-25" value="prototype" style="shape=partialRectangle;html=1;whiteSpace=wrap;connectable=0;fillColor=none;top=0;left=0;bottom=0;right=0;overflow=hidden;rounded=0;labelBorderColor=none;sketch=0;strokeColor=#000000;fontColor=#000000;" vertex="1" parent="5vw3lcFEC0u9zgBc4E5H-24">
                    <mxGeometry width="110" height="24" as="geometry">
                        <mxRectangle width="110" height="24" as="alternateBounds"/>
                    </mxGeometry>
                </mxCell>
                <mxCell id="5vw3lcFEC0u9zgBc4E5H-26" value="" style="shape=partialRectangle;html=1;whiteSpace=wrap;connectable=0;fillColor=none;top=0;left=0;bottom=0;right=0;overflow=hidden;rounded=0;labelBorderColor=none;sketch=0;strokeColor=#000000;fontColor=#000000;" vertex="1" parent="5vw3lcFEC0u9zgBc4E5H-24">
                    <mxGeometry x="110" width="108" height="24" as="geometry">
                        <mxRectangle width="108" height="24" as="alternateBounds"/>
                    </mxGeometry>
                </mxCell>
                <mxCell id="5vw3lcFEC0u9zgBc4E5H-27" value="" style="shape=tableRow;horizontal=0;startSize=0;swimlaneHead=0;swimlaneBody=0;top=0;left=0;bottom=0;right=0;collapsible=0;dropTarget=0;fillColor=none;points=[[0,0.5],[1,0.5]];portConstraint=eastwest;rounded=0;labelBorderColor=#000000;sketch=0;strokeColor=#000000;fontColor=#000000;" vertex="1" parent="5vw3lcFEC0u9zgBc4E5H-23">
                    <mxGeometry y="49" width="218" height="24" as="geometry"/>
                </mxCell>
                <mxCell id="5vw3lcFEC0u9zgBc4E5H-28" value="__proto__" style="shape=partialRectangle;html=1;whiteSpace=wrap;connectable=0;fillColor=none;top=0;left=0;bottom=0;right=0;overflow=hidden;rounded=0;labelBorderColor=none;sketch=0;strokeColor=#000000;fontColor=#000000;" vertex="1" parent="5vw3lcFEC0u9zgBc4E5H-27">
                    <mxGeometry width="110" height="24" as="geometry">
                        <mxRectangle width="110" height="24" as="alternateBounds"/>
                    </mxGeometry>
                </mxCell>
                <mxCell id="5vw3lcFEC0u9zgBc4E5H-29" value="" style="shape=partialRectangle;html=1;whiteSpace=wrap;connectable=0;fillColor=none;top=0;left=0;bottom=0;right=0;overflow=hidden;rounded=0;labelBorderColor=none;sketch=0;strokeColor=#000000;fontColor=#000000;" vertex="1" parent="5vw3lcFEC0u9zgBc4E5H-27">
                    <mxGeometry x="110" width="108" height="24" as="geometry">
                        <mxRectangle width="108" height="24" as="alternateBounds"/>
                    </mxGeometry>
                </mxCell>
                <mxCell id="5vw3lcFEC0u9zgBc4E5H-30" value="Object函数显式原型对象" style="shape=table;startSize=25;container=1;collapsible=0;childLayout=tableLayout;fontStyle=1;align=center;rounded=0;labelBorderColor=none;sketch=0;strokeColor=#000000;fontColor=#000000;fillColor=none;" vertex="1" parent="5vw3lcFEC0u9zgBc4E5H-1">
                    <mxGeometry x="604" y="160" width="208" height="73" as="geometry"/>
                </mxCell>
                <mxCell id="5vw3lcFEC0u9zgBc4E5H-31" value="" style="shape=tableRow;horizontal=0;startSize=0;swimlaneHead=0;swimlaneBody=0;top=0;left=0;bottom=0;right=0;collapsible=0;dropTarget=0;fillColor=none;points=[[0,0.5],[1,0.5]];portConstraint=eastwest;rounded=0;labelBorderColor=#000000;sketch=0;strokeColor=#000000;fontColor=#000000;" vertex="1" parent="5vw3lcFEC0u9zgBc4E5H-30">
                    <mxGeometry y="25" width="208" height="24" as="geometry"/>
                </mxCell>
                <mxCell id="5vw3lcFEC0u9zgBc4E5H-32" value="constructor" style="shape=partialRectangle;html=1;whiteSpace=wrap;connectable=0;fillColor=none;top=0;left=0;bottom=0;right=0;overflow=hidden;rounded=0;labelBorderColor=none;sketch=0;strokeColor=default;fontColor=#000000;" vertex="1" parent="5vw3lcFEC0u9zgBc4E5H-31">
                    <mxGeometry width="105" height="24" as="geometry">
                        <mxRectangle width="105" height="24" as="alternateBounds"/>
                    </mxGeometry>
                </mxCell>
                <mxCell id="5vw3lcFEC0u9zgBc4E5H-33" value="" style="shape=partialRectangle;html=1;whiteSpace=wrap;connectable=0;fillColor=none;top=0;left=0;bottom=0;right=0;overflow=hidden;rounded=0;labelBorderColor=none;sketch=0;strokeColor=#000000;fontColor=#000000;" vertex="1" parent="5vw3lcFEC0u9zgBc4E5H-31">
                    <mxGeometry x="105" width="103" height="24" as="geometry">
                        <mxRectangle width="103" height="24" as="alternateBounds"/>
                    </mxGeometry>
                </mxCell>
                <mxCell id="5vw3lcFEC0u9zgBc4E5H-34" value="" style="shape=tableRow;horizontal=0;startSize=0;swimlaneHead=0;swimlaneBody=0;top=0;left=0;bottom=0;right=0;collapsible=0;dropTarget=0;fillColor=none;points=[[0,0.5],[1,0.5]];portConstraint=eastwest;rounded=0;labelBorderColor=#000000;sketch=0;strokeColor=#000000;fontColor=#000000;" vertex="1" parent="5vw3lcFEC0u9zgBc4E5H-30">
                    <mxGeometry y="49" width="208" height="24" as="geometry"/>
                </mxCell>
                <mxCell id="5vw3lcFEC0u9zgBc4E5H-35" value="__proto__" style="shape=partialRectangle;html=1;whiteSpace=wrap;connectable=0;fillColor=none;top=0;left=0;bottom=0;right=0;overflow=hidden;rounded=0;labelBorderColor=none;sketch=0;strokeColor=default;fontColor=#000000;" vertex="1" parent="5vw3lcFEC0u9zgBc4E5H-34">
                    <mxGeometry width="105" height="24" as="geometry">
                        <mxRectangle width="105" height="24" as="alternateBounds"/>
                    </mxGeometry>
                </mxCell>
                <mxCell id="5vw3lcFEC0u9zgBc4E5H-36" value="null" style="shape=partialRectangle;html=1;whiteSpace=wrap;connectable=0;fillColor=none;top=0;left=0;bottom=0;right=0;overflow=hidden;rounded=0;labelBorderColor=none;sketch=0;strokeColor=#000000;fontColor=#000000;" vertex="1" parent="5vw3lcFEC0u9zgBc4E5H-34">
                    <mxGeometry x="105" width="103" height="24" as="geometry">
                        <mxRectangle width="103" height="24" as="alternateBounds"/>
                    </mxGeometry>
                </mxCell>
                <mxCell id="5vw3lcFEC0u9zgBc4E5H-37" value="" style="endArrow=classic;html=1;strokeColor=#2D7600;fontColor=#000000;fillColor=#60a917;strokeWidth=2;exitX=1;exitY=0.5;exitDx=0;exitDy=0;entryX=0;entryY=0.25;entryDx=0;entryDy=0;" edge="1" parent="5vw3lcFEC0u9zgBc4E5H-1" target="5vw3lcFEC0u9zgBc4E5H-30">
                    <mxGeometry width="50" height="50" relative="1" as="geometry">
                        <mxPoint x="467.29" y="196.53" as="sourcePoint"/>
                        <mxPoint x="241.99599999999992" y="7.001999999999981" as="targetPoint"/>
                    </mxGeometry>
                </mxCell>
                <mxCell id="5vw3lcFEC0u9zgBc4E5H-38" value="" style="edgeStyle=elbowEdgeStyle;elbow=vertical;endArrow=classic;html=1;curved=0;rounded=0;endSize=8;startSize=8;fillColor=#60a917;strokeColor=#2D7600;strokeWidth=2;" edge="1" parent="5vw3lcFEC0u9zgBc4E5H-1">
                    <mxGeometry width="50" height="50" relative="1" as="geometry">
                        <mxPoint x="783" y="198" as="sourcePoint"/>
                        <mxPoint x="437" y="155" as="targetPoint"/>
                        <Array as="points">
                            <mxPoint x="611" y="122"/>
                        </Array>
                    </mxGeometry>
                </mxCell>
                <mxCell id="5vw3lcFEC0u9zgBc4E5H-39" value="" style="edgeStyle=elbowEdgeStyle;elbow=horizontal;endArrow=classic;html=1;curved=0;rounded=0;endSize=8;startSize=8;fillColor=#60a917;strokeColor=#2D7600;strokeWidth=2;entryX=1.01;entryY=0.164;entryDx=0;entryDy=0;entryPerimeter=0;" edge="1" parent="5vw3lcFEC0u9zgBc4E5H-1" source="5vw3lcFEC0u9zgBc4E5H-13" target="5vw3lcFEC0u9zgBc4E5H-30">
                    <mxGeometry width="50" height="50" relative="1" as="geometry">
                        <mxPoint x="376" y="284" as="sourcePoint"/>
                        <mxPoint x="820" y="170" as="targetPoint"/>
                        <Array as="points">
                            <mxPoint x="845" y="256"/>
                        </Array>
                    </mxGeometry>
                </mxCell>
                <mxCell id="5vw3lcFEC0u9zgBc4E5H-40" value="函数对象：function Funtion () {}" style="shape=table;startSize=25;container=1;collapsible=0;childLayout=tableLayout;fontStyle=1;align=center;rounded=0;labelBorderColor=none;sketch=0;strokeColor=#000000;fontColor=#000000;fillColor=none;" vertex="1" parent="5vw3lcFEC0u9zgBc4E5H-1">
                    <mxGeometry x="294" y="-13" width="218" height="73" as="geometry"/>
                </mxCell>
                <mxCell id="5vw3lcFEC0u9zgBc4E5H-41" value="" style="shape=tableRow;horizontal=0;startSize=0;swimlaneHead=0;swimlaneBody=0;top=0;left=0;bottom=0;right=0;collapsible=0;dropTarget=0;fillColor=none;points=[[0,0.5],[1,0.5]];portConstraint=eastwest;rounded=0;labelBorderColor=#000000;sketch=0;strokeColor=#000000;fontColor=#000000;" vertex="1" parent="5vw3lcFEC0u9zgBc4E5H-40">
                    <mxGeometry y="25" width="218" height="24" as="geometry"/>
                </mxCell>
                <mxCell id="5vw3lcFEC0u9zgBc4E5H-42" value="prototype" style="shape=partialRectangle;html=1;whiteSpace=wrap;connectable=0;fillColor=none;top=0;left=0;bottom=0;right=0;overflow=hidden;rounded=0;labelBorderColor=none;sketch=0;strokeColor=#000000;fontColor=#000000;" vertex="1" parent="5vw3lcFEC0u9zgBc4E5H-41">
                    <mxGeometry width="110" height="24" as="geometry">
                        <mxRectangle width="110" height="24" as="alternateBounds"/>
                    </mxGeometry>
                </mxCell>
                <mxCell id="5vw3lcFEC0u9zgBc4E5H-43" value="" style="shape=partialRectangle;html=1;whiteSpace=wrap;connectable=0;fillColor=none;top=0;left=0;bottom=0;right=0;overflow=hidden;rounded=0;labelBorderColor=none;sketch=0;strokeColor=#000000;fontColor=#000000;" vertex="1" parent="5vw3lcFEC0u9zgBc4E5H-41">
                    <mxGeometry x="110" width="108" height="24" as="geometry">
                        <mxRectangle width="108" height="24" as="alternateBounds"/>
                    </mxGeometry>
                </mxCell>
                <mxCell id="5vw3lcFEC0u9zgBc4E5H-44" value="" style="shape=tableRow;horizontal=0;startSize=0;swimlaneHead=0;swimlaneBody=0;top=0;left=0;bottom=0;right=0;collapsible=0;dropTarget=0;fillColor=none;points=[[0,0.5],[1,0.5]];portConstraint=eastwest;rounded=0;labelBorderColor=#000000;sketch=0;strokeColor=#000000;fontColor=#000000;" vertex="1" parent="5vw3lcFEC0u9zgBc4E5H-40">
                    <mxGeometry y="49" width="218" height="24" as="geometry"/>
                </mxCell>
                <mxCell id="5vw3lcFEC0u9zgBc4E5H-45" value="__proto__" style="shape=partialRectangle;html=1;whiteSpace=wrap;connectable=0;fillColor=none;top=0;left=0;bottom=0;right=0;overflow=hidden;rounded=0;labelBorderColor=none;sketch=0;strokeColor=#000000;fontColor=#000000;" vertex="1" parent="5vw3lcFEC0u9zgBc4E5H-44">
                    <mxGeometry width="110" height="24" as="geometry">
                        <mxRectangle width="110" height="24" as="alternateBounds"/>
                    </mxGeometry>
                </mxCell>
                <mxCell id="5vw3lcFEC0u9zgBc4E5H-46" value="" style="shape=partialRectangle;html=1;whiteSpace=wrap;connectable=0;fillColor=none;top=0;left=0;bottom=0;right=0;overflow=hidden;rounded=0;labelBorderColor=none;sketch=0;strokeColor=#000000;fontColor=#000000;" vertex="1" parent="5vw3lcFEC0u9zgBc4E5H-44">
                    <mxGeometry x="110" width="108" height="24" as="geometry">
                        <mxRectangle width="108" height="24" as="alternateBounds"/>
                    </mxGeometry>
                </mxCell>
                <mxCell id="5vw3lcFEC0u9zgBc4E5H-47" value="Funtion函数显式原型对象" style="shape=table;startSize=25;container=1;collapsible=0;childLayout=tableLayout;fontStyle=1;align=center;rounded=0;labelBorderColor=none;sketch=0;strokeColor=#000000;fontColor=#000000;fillColor=none;" vertex="1" parent="5vw3lcFEC0u9zgBc4E5H-1">
                    <mxGeometry x="597" y="-18" width="208" height="73" as="geometry"/>
                </mxCell>
                <mxCell id="5vw3lcFEC0u9zgBc4E5H-48" value="" style="shape=tableRow;horizontal=0;startSize=0;swimlaneHead=0;swimlaneBody=0;top=0;left=0;bottom=0;right=0;collapsible=0;dropTarget=0;fillColor=none;points=[[0,0.5],[1,0.5]];portConstraint=eastwest;rounded=0;labelBorderColor=#000000;sketch=0;strokeColor=#000000;fontColor=#000000;" vertex="1" parent="5vw3lcFEC0u9zgBc4E5H-47">
                    <mxGeometry y="25" width="208" height="24" as="geometry"/>
                </mxCell>
                <mxCell id="5vw3lcFEC0u9zgBc4E5H-49" value="constructor" style="shape=partialRectangle;html=1;whiteSpace=wrap;connectable=0;fillColor=none;top=0;left=0;bottom=0;right=0;overflow=hidden;rounded=0;labelBorderColor=none;sketch=0;strokeColor=default;fontColor=#000000;" vertex="1" parent="5vw3lcFEC0u9zgBc4E5H-48">
                    <mxGeometry width="105" height="24" as="geometry">
                        <mxRectangle width="105" height="24" as="alternateBounds"/>
                    </mxGeometry>
                </mxCell>
                <mxCell id="5vw3lcFEC0u9zgBc4E5H-50" value="" style="shape=partialRectangle;html=1;whiteSpace=wrap;connectable=0;fillColor=none;top=0;left=0;bottom=0;right=0;overflow=hidden;rounded=0;labelBorderColor=none;sketch=0;strokeColor=#000000;fontColor=#000000;" vertex="1" parent="5vw3lcFEC0u9zgBc4E5H-48">
                    <mxGeometry x="105" width="103" height="24" as="geometry">
                        <mxRectangle width="103" height="24" as="alternateBounds"/>
                    </mxGeometry>
                </mxCell>
                <mxCell id="5vw3lcFEC0u9zgBc4E5H-51" value="" style="shape=tableRow;horizontal=0;startSize=0;swimlaneHead=0;swimlaneBody=0;top=0;left=0;bottom=0;right=0;collapsible=0;dropTarget=0;fillColor=none;points=[[0,0.5],[1,0.5]];portConstraint=eastwest;rounded=0;labelBorderColor=#000000;sketch=0;strokeColor=#000000;fontColor=#000000;" vertex="1" parent="5vw3lcFEC0u9zgBc4E5H-47">
                    <mxGeometry y="49" width="208" height="24" as="geometry"/>
                </mxCell>
                <mxCell id="5vw3lcFEC0u9zgBc4E5H-52" value="__proto__" style="shape=partialRectangle;html=1;whiteSpace=wrap;connectable=0;fillColor=none;top=0;left=0;bottom=0;right=0;overflow=hidden;rounded=0;labelBorderColor=none;sketch=0;strokeColor=default;fontColor=#000000;" vertex="1" parent="5vw3lcFEC0u9zgBc4E5H-51">
                    <mxGeometry width="105" height="24" as="geometry">
                        <mxRectangle width="105" height="24" as="alternateBounds"/>
                    </mxGeometry>
                </mxCell>
                <mxCell id="5vw3lcFEC0u9zgBc4E5H-53" value="" style="shape=partialRectangle;html=1;whiteSpace=wrap;connectable=0;fillColor=none;top=0;left=0;bottom=0;right=0;overflow=hidden;rounded=0;labelBorderColor=none;sketch=0;strokeColor=#000000;fontColor=#000000;" vertex="1" parent="5vw3lcFEC0u9zgBc4E5H-51">
                    <mxGeometry x="105" width="103" height="24" as="geometry">
                        <mxRectangle width="103" height="24" as="alternateBounds"/>
                    </mxGeometry>
                </mxCell>
                <mxCell id="5vw3lcFEC0u9zgBc4E5H-54" value="" style="endArrow=classic;html=1;strokeColor=#001DBC;fontColor=#000000;fillColor=#0050ef;strokeWidth=2;exitX=1;exitY=0.5;exitDx=0;exitDy=0;entryX=0.001;entryY=0.148;entryDx=0;entryDy=0;entryPerimeter=0;" edge="1" parent="5vw3lcFEC0u9zgBc4E5H-1" target="5vw3lcFEC0u9zgBc4E5H-47">
                    <mxGeometry width="50" height="50" relative="1" as="geometry">
                        <mxPoint x="464.99999999999994" y="22.279999999999973" as="sourcePoint"/>
                        <mxPoint x="602" y="-5" as="targetPoint"/>
                    </mxGeometry>
                </mxCell>
                <mxCell id="5vw3lcFEC0u9zgBc4E5H-55" value="" style="edgeStyle=elbowEdgeStyle;elbow=vertical;endArrow=classic;html=1;curved=0;rounded=0;endSize=8;startSize=8;fillColor=#0050ef;strokeColor=#001DBC;strokeWidth=2;" edge="1" parent="5vw3lcFEC0u9zgBc4E5H-1">
                    <mxGeometry width="50" height="50" relative="1" as="geometry">
                        <mxPoint x="763" y="24" as="sourcePoint"/>
                        <mxPoint x="417" y="-19" as="targetPoint"/>
                        <Array as="points">
                            <mxPoint x="591" y="-52"/>
                        </Array>
                    </mxGeometry>
                </mxCell>
                <mxCell id="5vw3lcFEC0u9zgBc4E5H-56" value="" style="endArrow=classic;html=1;strokeColor=#001DBC;fontColor=#000000;fillColor=#0050ef;strokeWidth=2;exitX=1;exitY=0.5;exitDx=0;exitDy=0;entryX=0;entryY=0.25;entryDx=0;entryDy=0;" edge="1" parent="5vw3lcFEC0u9zgBc4E5H-1" target="5vw3lcFEC0u9zgBc4E5H-47">
                    <mxGeometry width="50" height="50" relative="1" as="geometry">
                        <mxPoint x="469" y="50.479999999999976" as="sourcePoint"/>
                        <mxPoint x="601.2080000000001" y="21.003999999999973" as="targetPoint"/>
                    </mxGeometry>
                </mxCell>
                <mxCell id="5vw3lcFEC0u9zgBc4E5H-57" value="" style="endArrow=classic;html=1;strokeColor=#3700CC;fontColor=#000000;fillColor=#6a00ff;strokeWidth=2;exitX=1;exitY=0.5;exitDx=0;exitDy=0;" edge="1" parent="5vw3lcFEC0u9zgBc4E5H-1">
                    <mxGeometry width="50" height="50" relative="1" as="geometry">
                        <mxPoint x="422.99999999999994" y="352.28" as="sourcePoint"/>
                        <mxPoint x="592" y="6" as="targetPoint"/>
                    </mxGeometry>
                </mxCell>
                <mxCell id="5vw3lcFEC0u9zgBc4E5H-58" value="" style="endArrow=classic;html=1;strokeColor=#001DBC;fontColor=#000000;fillColor=#0050ef;strokeWidth=2;exitX=1;exitY=0.5;exitDx=0;exitDy=0;entryX=0.708;entryY=-0.036;entryDx=0;entryDy=0;entryPerimeter=0;" edge="1" parent="5vw3lcFEC0u9zgBc4E5H-1" target="5vw3lcFEC0u9zgBc4E5H-30">
                    <mxGeometry width="50" height="50" relative="1" as="geometry">
                        <mxPoint x="751" y="43.610000000000014" as="sourcePoint"/>
                        <mxPoint x="879" y="-6.620000000000001" as="targetPoint"/>
                        <Array as="points">
                            <mxPoint x="751" y="101"/>
                        </Array>
                    </mxGeometry>
                </mxCell>
                <mxCell id="5vw3lcFEC0u9zgBc4E5H-59" value="" style="endArrow=classic;html=1;strokeColor=#3700CC;fontColor=#000000;fillColor=#6a00ff;strokeWidth=2;exitX=1;exitY=0.5;exitDx=0;exitDy=0;" edge="1" parent="5vw3lcFEC0u9zgBc4E5H-1">
                    <mxGeometry width="50" height="50" relative="1" as="geometry">
                        <mxPoint x="444" y="220.27999999999997" as="sourcePoint"/>
                        <mxPoint x="582" y="18" as="targetPoint"/>
                    </mxGeometry>
                </mxCell>
                <mxCell id="PIUqHLh5-3uyVOeEF5Tq-0" value="obj实例对象：{}" style="shape=table;startSize=25;container=1;collapsible=0;childLayout=tableLayout;fontStyle=1;align=center;rounded=0;labelBorderColor=none;sketch=0;strokeColor=#000000;fontColor=#000000;fillColor=none;" vertex="1" parent="5vw3lcFEC0u9zgBc4E5H-1">
                    <mxGeometry x="-11" y="154" width="218" height="49" as="geometry"/>
                </mxCell>
                <mxCell id="PIUqHLh5-3uyVOeEF5Tq-1" value="" style="shape=tableRow;horizontal=0;startSize=0;swimlaneHead=0;swimlaneBody=0;top=0;left=0;bottom=0;right=0;collapsible=0;dropTarget=0;fillColor=none;points=[[0,0.5],[1,0.5]];portConstraint=eastwest;rounded=0;labelBorderColor=#000000;sketch=0;strokeColor=#000000;fontColor=#000000;" vertex="1" parent="PIUqHLh5-3uyVOeEF5Tq-0">
                    <mxGeometry y="25" width="218" height="24" as="geometry"/>
                </mxCell>
                <mxCell id="PIUqHLh5-3uyVOeEF5Tq-2" value="__proto__" style="shape=partialRectangle;html=1;whiteSpace=wrap;connectable=0;fillColor=none;top=0;left=0;bottom=0;right=0;overflow=hidden;rounded=0;labelBorderColor=none;sketch=0;strokeColor=#000000;fontColor=#000000;" vertex="1" parent="PIUqHLh5-3uyVOeEF5Tq-1">
                    <mxGeometry width="110" height="24" as="geometry">
                        <mxRectangle width="110" height="24" as="alternateBounds"/>
                    </mxGeometry>
                </mxCell>
                <mxCell id="PIUqHLh5-3uyVOeEF5Tq-3" value="" style="shape=partialRectangle;html=1;whiteSpace=wrap;connectable=0;fillColor=none;top=0;left=0;bottom=0;right=0;overflow=hidden;rounded=0;labelBorderColor=none;sketch=0;strokeColor=#000000;fontColor=#000000;" vertex="1" parent="PIUqHLh5-3uyVOeEF5Tq-1">
                    <mxGeometry x="110" width="108" height="24" as="geometry">
                        <mxRectangle width="108" height="24" as="alternateBounds"/>
                    </mxGeometry>
                </mxCell>
                <mxCell id="PIUqHLh5-3uyVOeEF5Tq-4" value="" style="endArrow=classic;html=1;strokeColor=#33FFFF;fontColor=#000000;fillColor=#b0e3e6;strokeWidth=2;exitX=1;exitY=0.5;exitDx=0;exitDy=0;entryX=-0.013;entryY=0.099;entryDx=0;entryDy=0;entryPerimeter=0;" edge="1" parent="5vw3lcFEC0u9zgBc4E5H-1" target="5vw3lcFEC0u9zgBc4E5H-30">
                    <mxGeometry width="50" height="50" relative="1" as="geometry">
                        <mxPoint x="149" y="194.27999999999997" as="sourcePoint"/>
                        <mxPoint x="287" y="-8" as="targetPoint"/>
                    </mxGeometry>
                </mxCell>
            </root>
        </mxGraphModel>
    </diagram>
</mxfile>